%TF.GenerationSoftware,KiCad,Pcbnew,8.0.0*%
%TF.CreationDate,2024-03-12T15:13:44-04:00*%
%TF.ProjectId,slimevrpcb,736c696d-6576-4727-9063-622e6b696361,rev?*%
%TF.SameCoordinates,Original*%
%TF.FileFunction,Legend,Top*%
%TF.FilePolarity,Positive*%
%FSLAX46Y46*%
G04 Gerber Fmt 4.6, Leading zero omitted, Abs format (unit mm)*
G04 Created by KiCad (PCBNEW 8.0.0) date 2024-03-12 15:13:44*
%MOMM*%
%LPD*%
G01*
G04 APERTURE LIST*
%ADD10C,0.150000*%
%ADD11C,0.000000*%
%ADD12C,0.120000*%
G04 APERTURE END LIST*
D10*
X157048457Y-92232173D02*
X173536142Y-92232173D01*
X173536142Y-117181084D01*
X157048457Y-117181084D01*
X157048457Y-92232173D01*
X133427944Y-84736165D02*
X149147411Y-84736165D01*
X149147411Y-111177961D01*
X133427944Y-111177961D01*
X133427944Y-84736165D01*
X168836779Y-89869819D02*
X168836779Y-89203152D01*
X168836779Y-89298390D02*
X168884398Y-89250771D01*
X168884398Y-89250771D02*
X168979636Y-89203152D01*
X168979636Y-89203152D02*
X169122493Y-89203152D01*
X169122493Y-89203152D02*
X169217731Y-89250771D01*
X169217731Y-89250771D02*
X169265350Y-89346009D01*
X169265350Y-89346009D02*
X169265350Y-89869819D01*
X169265350Y-89346009D02*
X169312969Y-89250771D01*
X169312969Y-89250771D02*
X169408207Y-89203152D01*
X169408207Y-89203152D02*
X169551064Y-89203152D01*
X169551064Y-89203152D02*
X169646303Y-89250771D01*
X169646303Y-89250771D02*
X169693922Y-89346009D01*
X169693922Y-89346009D02*
X169693922Y-89869819D01*
X170551064Y-89822200D02*
X170455826Y-89869819D01*
X170455826Y-89869819D02*
X170265350Y-89869819D01*
X170265350Y-89869819D02*
X170170112Y-89822200D01*
X170170112Y-89822200D02*
X170122493Y-89726961D01*
X170122493Y-89726961D02*
X170122493Y-89346009D01*
X170122493Y-89346009D02*
X170170112Y-89250771D01*
X170170112Y-89250771D02*
X170265350Y-89203152D01*
X170265350Y-89203152D02*
X170455826Y-89203152D01*
X170455826Y-89203152D02*
X170551064Y-89250771D01*
X170551064Y-89250771D02*
X170598683Y-89346009D01*
X170598683Y-89346009D02*
X170598683Y-89441247D01*
X170598683Y-89441247D02*
X170122493Y-89536485D01*
X171170112Y-89869819D02*
X171074874Y-89822200D01*
X171074874Y-89822200D02*
X171027255Y-89774580D01*
X171027255Y-89774580D02*
X170979636Y-89679342D01*
X170979636Y-89679342D02*
X170979636Y-89393628D01*
X170979636Y-89393628D02*
X171027255Y-89298390D01*
X171027255Y-89298390D02*
X171074874Y-89250771D01*
X171074874Y-89250771D02*
X171170112Y-89203152D01*
X171170112Y-89203152D02*
X171312969Y-89203152D01*
X171312969Y-89203152D02*
X171408207Y-89250771D01*
X171408207Y-89250771D02*
X171455826Y-89298390D01*
X171455826Y-89298390D02*
X171503445Y-89393628D01*
X171503445Y-89393628D02*
X171503445Y-89679342D01*
X171503445Y-89679342D02*
X171455826Y-89774580D01*
X171455826Y-89774580D02*
X171408207Y-89822200D01*
X171408207Y-89822200D02*
X171312969Y-89869819D01*
X171312969Y-89869819D02*
X171170112Y-89869819D01*
X171836779Y-89203152D02*
X172027255Y-89869819D01*
X172027255Y-89869819D02*
X172217731Y-89393628D01*
X172217731Y-89393628D02*
X172408207Y-89869819D01*
X172408207Y-89869819D02*
X172598683Y-89203152D01*
X138928571Y-98954819D02*
X138928571Y-97954819D01*
X138928571Y-98335771D02*
X139023809Y-98288152D01*
X139023809Y-98288152D02*
X139214285Y-98288152D01*
X139214285Y-98288152D02*
X139309523Y-98335771D01*
X139309523Y-98335771D02*
X139357142Y-98383390D01*
X139357142Y-98383390D02*
X139404761Y-98478628D01*
X139404761Y-98478628D02*
X139404761Y-98764342D01*
X139404761Y-98764342D02*
X139357142Y-98859580D01*
X139357142Y-98859580D02*
X139309523Y-98907200D01*
X139309523Y-98907200D02*
X139214285Y-98954819D01*
X139214285Y-98954819D02*
X139023809Y-98954819D01*
X139023809Y-98954819D02*
X138928571Y-98907200D01*
X139833333Y-98288152D02*
X139833333Y-98954819D01*
X139833333Y-98383390D02*
X139880952Y-98335771D01*
X139880952Y-98335771D02*
X139976190Y-98288152D01*
X139976190Y-98288152D02*
X140119047Y-98288152D01*
X140119047Y-98288152D02*
X140214285Y-98335771D01*
X140214285Y-98335771D02*
X140261904Y-98431009D01*
X140261904Y-98431009D02*
X140261904Y-98954819D01*
X140928571Y-97954819D02*
X141023809Y-97954819D01*
X141023809Y-97954819D02*
X141119047Y-98002438D01*
X141119047Y-98002438D02*
X141166666Y-98050057D01*
X141166666Y-98050057D02*
X141214285Y-98145295D01*
X141214285Y-98145295D02*
X141261904Y-98335771D01*
X141261904Y-98335771D02*
X141261904Y-98573866D01*
X141261904Y-98573866D02*
X141214285Y-98764342D01*
X141214285Y-98764342D02*
X141166666Y-98859580D01*
X141166666Y-98859580D02*
X141119047Y-98907200D01*
X141119047Y-98907200D02*
X141023809Y-98954819D01*
X141023809Y-98954819D02*
X140928571Y-98954819D01*
X140928571Y-98954819D02*
X140833333Y-98907200D01*
X140833333Y-98907200D02*
X140785714Y-98859580D01*
X140785714Y-98859580D02*
X140738095Y-98764342D01*
X140738095Y-98764342D02*
X140690476Y-98573866D01*
X140690476Y-98573866D02*
X140690476Y-98335771D01*
X140690476Y-98335771D02*
X140738095Y-98145295D01*
X140738095Y-98145295D02*
X140785714Y-98050057D01*
X140785714Y-98050057D02*
X140833333Y-98002438D01*
X140833333Y-98002438D02*
X140928571Y-97954819D01*
X141880952Y-97954819D02*
X141976190Y-97954819D01*
X141976190Y-97954819D02*
X142071428Y-98002438D01*
X142071428Y-98002438D02*
X142119047Y-98050057D01*
X142119047Y-98050057D02*
X142166666Y-98145295D01*
X142166666Y-98145295D02*
X142214285Y-98335771D01*
X142214285Y-98335771D02*
X142214285Y-98573866D01*
X142214285Y-98573866D02*
X142166666Y-98764342D01*
X142166666Y-98764342D02*
X142119047Y-98859580D01*
X142119047Y-98859580D02*
X142071428Y-98907200D01*
X142071428Y-98907200D02*
X141976190Y-98954819D01*
X141976190Y-98954819D02*
X141880952Y-98954819D01*
X141880952Y-98954819D02*
X141785714Y-98907200D01*
X141785714Y-98907200D02*
X141738095Y-98859580D01*
X141738095Y-98859580D02*
X141690476Y-98764342D01*
X141690476Y-98764342D02*
X141642857Y-98573866D01*
X141642857Y-98573866D02*
X141642857Y-98335771D01*
X141642857Y-98335771D02*
X141690476Y-98145295D01*
X141690476Y-98145295D02*
X141738095Y-98050057D01*
X141738095Y-98050057D02*
X141785714Y-98002438D01*
X141785714Y-98002438D02*
X141880952Y-97954819D01*
X142785714Y-98383390D02*
X142690476Y-98335771D01*
X142690476Y-98335771D02*
X142642857Y-98288152D01*
X142642857Y-98288152D02*
X142595238Y-98192914D01*
X142595238Y-98192914D02*
X142595238Y-98145295D01*
X142595238Y-98145295D02*
X142642857Y-98050057D01*
X142642857Y-98050057D02*
X142690476Y-98002438D01*
X142690476Y-98002438D02*
X142785714Y-97954819D01*
X142785714Y-97954819D02*
X142976190Y-97954819D01*
X142976190Y-97954819D02*
X143071428Y-98002438D01*
X143071428Y-98002438D02*
X143119047Y-98050057D01*
X143119047Y-98050057D02*
X143166666Y-98145295D01*
X143166666Y-98145295D02*
X143166666Y-98192914D01*
X143166666Y-98192914D02*
X143119047Y-98288152D01*
X143119047Y-98288152D02*
X143071428Y-98335771D01*
X143071428Y-98335771D02*
X142976190Y-98383390D01*
X142976190Y-98383390D02*
X142785714Y-98383390D01*
X142785714Y-98383390D02*
X142690476Y-98431009D01*
X142690476Y-98431009D02*
X142642857Y-98478628D01*
X142642857Y-98478628D02*
X142595238Y-98573866D01*
X142595238Y-98573866D02*
X142595238Y-98764342D01*
X142595238Y-98764342D02*
X142642857Y-98859580D01*
X142642857Y-98859580D02*
X142690476Y-98907200D01*
X142690476Y-98907200D02*
X142785714Y-98954819D01*
X142785714Y-98954819D02*
X142976190Y-98954819D01*
X142976190Y-98954819D02*
X143071428Y-98907200D01*
X143071428Y-98907200D02*
X143119047Y-98859580D01*
X143119047Y-98859580D02*
X143166666Y-98764342D01*
X143166666Y-98764342D02*
X143166666Y-98573866D01*
X143166666Y-98573866D02*
X143119047Y-98478628D01*
X143119047Y-98478628D02*
X143071428Y-98431009D01*
X143071428Y-98431009D02*
X142976190Y-98383390D01*
X144071428Y-97954819D02*
X143595238Y-97954819D01*
X143595238Y-97954819D02*
X143547619Y-98431009D01*
X143547619Y-98431009D02*
X143595238Y-98383390D01*
X143595238Y-98383390D02*
X143690476Y-98335771D01*
X143690476Y-98335771D02*
X143928571Y-98335771D01*
X143928571Y-98335771D02*
X144023809Y-98383390D01*
X144023809Y-98383390D02*
X144071428Y-98431009D01*
X144071428Y-98431009D02*
X144119047Y-98526247D01*
X144119047Y-98526247D02*
X144119047Y-98764342D01*
X144119047Y-98764342D02*
X144071428Y-98859580D01*
X144071428Y-98859580D02*
X144023809Y-98907200D01*
X144023809Y-98907200D02*
X143928571Y-98954819D01*
X143928571Y-98954819D02*
X143690476Y-98954819D01*
X143690476Y-98954819D02*
X143595238Y-98907200D01*
X143595238Y-98907200D02*
X143547619Y-98859580D01*
X151346119Y-97657294D02*
X150346119Y-97657294D01*
X150346119Y-97657294D02*
X150346119Y-97419199D01*
X150346119Y-97419199D02*
X150393738Y-97276342D01*
X150393738Y-97276342D02*
X150488976Y-97181104D01*
X150488976Y-97181104D02*
X150584214Y-97133485D01*
X150584214Y-97133485D02*
X150774690Y-97085866D01*
X150774690Y-97085866D02*
X150917547Y-97085866D01*
X150917547Y-97085866D02*
X151108023Y-97133485D01*
X151108023Y-97133485D02*
X151203261Y-97181104D01*
X151203261Y-97181104D02*
X151298500Y-97276342D01*
X151298500Y-97276342D02*
X151346119Y-97419199D01*
X151346119Y-97419199D02*
X151346119Y-97657294D01*
X151346119Y-96133485D02*
X151346119Y-96704913D01*
X151346119Y-96419199D02*
X150346119Y-96419199D01*
X150346119Y-96419199D02*
X150488976Y-96514437D01*
X150488976Y-96514437D02*
X150584214Y-96609675D01*
X150584214Y-96609675D02*
X150631833Y-96704913D01*
X151716119Y-102261104D02*
X150716119Y-102261104D01*
X151716119Y-101689676D02*
X151144690Y-102118247D01*
X150716119Y-101689676D02*
X151287547Y-102261104D01*
X151896119Y-87256066D02*
X151419928Y-87589399D01*
X151896119Y-87827494D02*
X150896119Y-87827494D01*
X150896119Y-87827494D02*
X150896119Y-87446542D01*
X150896119Y-87446542D02*
X150943738Y-87351304D01*
X150943738Y-87351304D02*
X150991357Y-87303685D01*
X150991357Y-87303685D02*
X151086595Y-87256066D01*
X151086595Y-87256066D02*
X151229452Y-87256066D01*
X151229452Y-87256066D02*
X151324690Y-87303685D01*
X151324690Y-87303685D02*
X151372309Y-87351304D01*
X151372309Y-87351304D02*
X151419928Y-87446542D01*
X151419928Y-87446542D02*
X151419928Y-87827494D01*
X151896119Y-86303685D02*
X151896119Y-86875113D01*
X151896119Y-86589399D02*
X150896119Y-86589399D01*
X150896119Y-86589399D02*
X151038976Y-86684637D01*
X151038976Y-86684637D02*
X151134214Y-86779875D01*
X151134214Y-86779875D02*
X151181833Y-86875113D01*
X151346119Y-111163594D02*
X150346119Y-111163594D01*
X150346119Y-111163594D02*
X150346119Y-110925499D01*
X150346119Y-110925499D02*
X150393738Y-110782642D01*
X150393738Y-110782642D02*
X150488976Y-110687404D01*
X150488976Y-110687404D02*
X150584214Y-110639785D01*
X150584214Y-110639785D02*
X150774690Y-110592166D01*
X150774690Y-110592166D02*
X150917547Y-110592166D01*
X150917547Y-110592166D02*
X151108023Y-110639785D01*
X151108023Y-110639785D02*
X151203261Y-110687404D01*
X151203261Y-110687404D02*
X151298500Y-110782642D01*
X151298500Y-110782642D02*
X151346119Y-110925499D01*
X151346119Y-110925499D02*
X151346119Y-111163594D01*
X150441357Y-110211213D02*
X150393738Y-110163594D01*
X150393738Y-110163594D02*
X150346119Y-110068356D01*
X150346119Y-110068356D02*
X150346119Y-109830261D01*
X150346119Y-109830261D02*
X150393738Y-109735023D01*
X150393738Y-109735023D02*
X150441357Y-109687404D01*
X150441357Y-109687404D02*
X150536595Y-109639785D01*
X150536595Y-109639785D02*
X150631833Y-109639785D01*
X150631833Y-109639785D02*
X150774690Y-109687404D01*
X150774690Y-109687404D02*
X151346119Y-110258832D01*
X151346119Y-110258832D02*
X151346119Y-109639785D01*
X151716119Y-115767404D02*
X150716119Y-115767404D01*
X151716119Y-115195976D02*
X151144690Y-115624547D01*
X150716119Y-115195976D02*
X151287547Y-115767404D01*
X153708495Y-83304687D02*
X153851352Y-83352306D01*
X153851352Y-83352306D02*
X153898971Y-83399925D01*
X153898971Y-83399925D02*
X153946590Y-83495163D01*
X153946590Y-83495163D02*
X153946590Y-83638020D01*
X153946590Y-83638020D02*
X153898971Y-83733258D01*
X153898971Y-83733258D02*
X153851352Y-83780878D01*
X153851352Y-83780878D02*
X153756114Y-83828497D01*
X153756114Y-83828497D02*
X153375162Y-83828497D01*
X153375162Y-83828497D02*
X153375162Y-82828497D01*
X153375162Y-82828497D02*
X153708495Y-82828497D01*
X153708495Y-82828497D02*
X153803733Y-82876116D01*
X153803733Y-82876116D02*
X153851352Y-82923735D01*
X153851352Y-82923735D02*
X153898971Y-83018973D01*
X153898971Y-83018973D02*
X153898971Y-83114211D01*
X153898971Y-83114211D02*
X153851352Y-83209449D01*
X153851352Y-83209449D02*
X153803733Y-83257068D01*
X153803733Y-83257068D02*
X153708495Y-83304687D01*
X153708495Y-83304687D02*
X153375162Y-83304687D01*
X154232305Y-82828497D02*
X154803733Y-82828497D01*
X154518019Y-83828497D02*
X154518019Y-82828497D01*
X155660876Y-83828497D02*
X155089448Y-83828497D01*
X155375162Y-83828497D02*
X155375162Y-82828497D01*
X155375162Y-82828497D02*
X155279924Y-82971354D01*
X155279924Y-82971354D02*
X155184686Y-83066592D01*
X155184686Y-83066592D02*
X155089448Y-83114211D01*
X117141935Y-99514776D02*
X117141935Y-98514776D01*
X117141935Y-98514776D02*
X117380030Y-98514776D01*
X117380030Y-98514776D02*
X117522887Y-98562395D01*
X117522887Y-98562395D02*
X117618125Y-98657633D01*
X117618125Y-98657633D02*
X117665744Y-98752871D01*
X117665744Y-98752871D02*
X117713363Y-98943347D01*
X117713363Y-98943347D02*
X117713363Y-99086204D01*
X117713363Y-99086204D02*
X117665744Y-99276680D01*
X117665744Y-99276680D02*
X117618125Y-99371918D01*
X117618125Y-99371918D02*
X117522887Y-99467157D01*
X117522887Y-99467157D02*
X117380030Y-99514776D01*
X117380030Y-99514776D02*
X117141935Y-99514776D01*
X118665744Y-99514776D02*
X118094316Y-99514776D01*
X118380030Y-99514776D02*
X118380030Y-98514776D01*
X118380030Y-98514776D02*
X118284792Y-98657633D01*
X118284792Y-98657633D02*
X118189554Y-98752871D01*
X118189554Y-98752871D02*
X118094316Y-98800490D01*
X119094316Y-99514776D02*
X119094316Y-98514776D01*
X119094316Y-98514776D02*
X119427649Y-99229061D01*
X119427649Y-99229061D02*
X119760982Y-98514776D01*
X119760982Y-98514776D02*
X119760982Y-99514776D01*
X120237173Y-99514776D02*
X120237173Y-98848109D01*
X120237173Y-98514776D02*
X120189554Y-98562395D01*
X120189554Y-98562395D02*
X120237173Y-98610014D01*
X120237173Y-98610014D02*
X120284792Y-98562395D01*
X120284792Y-98562395D02*
X120237173Y-98514776D01*
X120237173Y-98514776D02*
X120237173Y-98610014D01*
X120713363Y-98848109D02*
X120713363Y-99514776D01*
X120713363Y-98943347D02*
X120760982Y-98895728D01*
X120760982Y-98895728D02*
X120856220Y-98848109D01*
X120856220Y-98848109D02*
X120999077Y-98848109D01*
X120999077Y-98848109D02*
X121094315Y-98895728D01*
X121094315Y-98895728D02*
X121141934Y-98990966D01*
X121141934Y-98990966D02*
X121141934Y-99514776D01*
X121618125Y-99514776D02*
X121618125Y-98848109D01*
X121618125Y-98514776D02*
X121570506Y-98562395D01*
X121570506Y-98562395D02*
X121618125Y-98610014D01*
X121618125Y-98610014D02*
X121665744Y-98562395D01*
X121665744Y-98562395D02*
X121618125Y-98514776D01*
X121618125Y-98514776D02*
X121618125Y-98610014D01*
X133254976Y-115591779D02*
X133397833Y-115639398D01*
X133397833Y-115639398D02*
X133635928Y-115639398D01*
X133635928Y-115639398D02*
X133731166Y-115591779D01*
X133731166Y-115591779D02*
X133778785Y-115544159D01*
X133778785Y-115544159D02*
X133826404Y-115448921D01*
X133826404Y-115448921D02*
X133826404Y-115353683D01*
X133826404Y-115353683D02*
X133778785Y-115258445D01*
X133778785Y-115258445D02*
X133731166Y-115210826D01*
X133731166Y-115210826D02*
X133635928Y-115163207D01*
X133635928Y-115163207D02*
X133445452Y-115115588D01*
X133445452Y-115115588D02*
X133350214Y-115067969D01*
X133350214Y-115067969D02*
X133302595Y-115020350D01*
X133302595Y-115020350D02*
X133254976Y-114925112D01*
X133254976Y-114925112D02*
X133254976Y-114829874D01*
X133254976Y-114829874D02*
X133302595Y-114734636D01*
X133302595Y-114734636D02*
X133350214Y-114687017D01*
X133350214Y-114687017D02*
X133445452Y-114639398D01*
X133445452Y-114639398D02*
X133683547Y-114639398D01*
X133683547Y-114639398D02*
X133826404Y-114687017D01*
X134159738Y-114639398D02*
X134397833Y-115639398D01*
X134397833Y-115639398D02*
X134588309Y-114925112D01*
X134588309Y-114925112D02*
X134778785Y-115639398D01*
X134778785Y-115639398D02*
X135016881Y-114639398D01*
X135921642Y-115639398D02*
X135350214Y-115639398D01*
X135635928Y-115639398D02*
X135635928Y-114639398D01*
X135635928Y-114639398D02*
X135540690Y-114782255D01*
X135540690Y-114782255D02*
X135445452Y-114877493D01*
X135445452Y-114877493D02*
X135350214Y-114925112D01*
X162552385Y-103928172D02*
X162933337Y-103928172D01*
X162695242Y-103594839D02*
X162695242Y-104451981D01*
X162695242Y-104451981D02*
X162742861Y-104547220D01*
X162742861Y-104547220D02*
X162838099Y-104594839D01*
X162838099Y-104594839D02*
X162933337Y-104594839D01*
X163266671Y-103928172D02*
X163266671Y-104928172D01*
X163266671Y-103975791D02*
X163361909Y-103928172D01*
X163361909Y-103928172D02*
X163552385Y-103928172D01*
X163552385Y-103928172D02*
X163647623Y-103975791D01*
X163647623Y-103975791D02*
X163695242Y-104023410D01*
X163695242Y-104023410D02*
X163742861Y-104118648D01*
X163742861Y-104118648D02*
X163742861Y-104404362D01*
X163742861Y-104404362D02*
X163695242Y-104499600D01*
X163695242Y-104499600D02*
X163647623Y-104547220D01*
X163647623Y-104547220D02*
X163552385Y-104594839D01*
X163552385Y-104594839D02*
X163361909Y-104594839D01*
X163361909Y-104594839D02*
X163266671Y-104547220D01*
X164600004Y-103928172D02*
X164600004Y-104594839D01*
X164361909Y-103547220D02*
X164123814Y-104261505D01*
X164123814Y-104261505D02*
X164742861Y-104261505D01*
X165314290Y-103594839D02*
X165409528Y-103594839D01*
X165409528Y-103594839D02*
X165504766Y-103642458D01*
X165504766Y-103642458D02*
X165552385Y-103690077D01*
X165552385Y-103690077D02*
X165600004Y-103785315D01*
X165600004Y-103785315D02*
X165647623Y-103975791D01*
X165647623Y-103975791D02*
X165647623Y-104213886D01*
X165647623Y-104213886D02*
X165600004Y-104404362D01*
X165600004Y-104404362D02*
X165552385Y-104499600D01*
X165552385Y-104499600D02*
X165504766Y-104547220D01*
X165504766Y-104547220D02*
X165409528Y-104594839D01*
X165409528Y-104594839D02*
X165314290Y-104594839D01*
X165314290Y-104594839D02*
X165219052Y-104547220D01*
X165219052Y-104547220D02*
X165171433Y-104499600D01*
X165171433Y-104499600D02*
X165123814Y-104404362D01*
X165123814Y-104404362D02*
X165076195Y-104213886D01*
X165076195Y-104213886D02*
X165076195Y-103975791D01*
X165076195Y-103975791D02*
X165123814Y-103785315D01*
X165123814Y-103785315D02*
X165171433Y-103690077D01*
X165171433Y-103690077D02*
X165219052Y-103642458D01*
X165219052Y-103642458D02*
X165314290Y-103594839D01*
X166552385Y-103594839D02*
X166076195Y-103594839D01*
X166076195Y-103594839D02*
X166028576Y-104071029D01*
X166028576Y-104071029D02*
X166076195Y-104023410D01*
X166076195Y-104023410D02*
X166171433Y-103975791D01*
X166171433Y-103975791D02*
X166409528Y-103975791D01*
X166409528Y-103975791D02*
X166504766Y-104023410D01*
X166504766Y-104023410D02*
X166552385Y-104071029D01*
X166552385Y-104071029D02*
X166600004Y-104166267D01*
X166600004Y-104166267D02*
X166600004Y-104404362D01*
X166600004Y-104404362D02*
X166552385Y-104499600D01*
X166552385Y-104499600D02*
X166504766Y-104547220D01*
X166504766Y-104547220D02*
X166409528Y-104594839D01*
X166409528Y-104594839D02*
X166171433Y-104594839D01*
X166171433Y-104594839D02*
X166076195Y-104547220D01*
X166076195Y-104547220D02*
X166028576Y-104499600D01*
X167457147Y-103594839D02*
X167266671Y-103594839D01*
X167266671Y-103594839D02*
X167171433Y-103642458D01*
X167171433Y-103642458D02*
X167123814Y-103690077D01*
X167123814Y-103690077D02*
X167028576Y-103832934D01*
X167028576Y-103832934D02*
X166980957Y-104023410D01*
X166980957Y-104023410D02*
X166980957Y-104404362D01*
X166980957Y-104404362D02*
X167028576Y-104499600D01*
X167028576Y-104499600D02*
X167076195Y-104547220D01*
X167076195Y-104547220D02*
X167171433Y-104594839D01*
X167171433Y-104594839D02*
X167361909Y-104594839D01*
X167361909Y-104594839D02*
X167457147Y-104547220D01*
X167457147Y-104547220D02*
X167504766Y-104499600D01*
X167504766Y-104499600D02*
X167552385Y-104404362D01*
X167552385Y-104404362D02*
X167552385Y-104166267D01*
X167552385Y-104166267D02*
X167504766Y-104071029D01*
X167504766Y-104071029D02*
X167457147Y-104023410D01*
X167457147Y-104023410D02*
X167361909Y-103975791D01*
X167361909Y-103975791D02*
X167171433Y-103975791D01*
X167171433Y-103975791D02*
X167076195Y-104023410D01*
X167076195Y-104023410D02*
X167028576Y-104071029D01*
X167028576Y-104071029D02*
X166980957Y-104166267D01*
D11*
%TO.C,G\u002A\u002A\u002A*%
G36*
X173394705Y-82719334D02*
G01*
X173382384Y-82730264D01*
X173370718Y-82739877D01*
X173341904Y-82763687D01*
X173303710Y-82796173D01*
X173257996Y-82835690D01*
X173206620Y-82880590D01*
X173151442Y-82929229D01*
X173094322Y-82979959D01*
X173037118Y-83031136D01*
X172981690Y-83081113D01*
X172929898Y-83128245D01*
X172883600Y-83170885D01*
X172879151Y-83175018D01*
X172792912Y-83259395D01*
X172710740Y-83347918D01*
X172636381Y-83436434D01*
X172597921Y-83486664D01*
X172570540Y-83524001D01*
X172551276Y-83551261D01*
X172539261Y-83570699D01*
X172533626Y-83584572D01*
X172533505Y-83595135D01*
X172538028Y-83604645D01*
X172546327Y-83615358D01*
X172547738Y-83617079D01*
X172627204Y-83719026D01*
X172693776Y-83815324D01*
X172748167Y-83907236D01*
X172791089Y-83996024D01*
X172823254Y-84082952D01*
X172836112Y-84128418D01*
X172845439Y-84167710D01*
X172849771Y-84193857D01*
X172848475Y-84206959D01*
X172840920Y-84207122D01*
X172826474Y-84194447D01*
X172804505Y-84169038D01*
X172779548Y-84137637D01*
X172748501Y-84096428D01*
X172714697Y-84049277D01*
X172682441Y-84002303D01*
X172658402Y-83965412D01*
X172609156Y-83888437D01*
X172564796Y-83822343D01*
X172523372Y-83764366D01*
X172482934Y-83711744D01*
X172457225Y-83680264D01*
X172427908Y-83643787D01*
X172408719Y-83614677D01*
X172399170Y-83589341D01*
X172398773Y-83564184D01*
X172407040Y-83535611D01*
X172423484Y-83500029D01*
X172430821Y-83485751D01*
X172463530Y-83430198D01*
X172506583Y-83368256D01*
X172557865Y-83302351D01*
X172615263Y-83234909D01*
X172676663Y-83168355D01*
X172739952Y-83105115D01*
X172803016Y-83047615D01*
X172838310Y-83018131D01*
X172936219Y-82944456D01*
X173037744Y-82877671D01*
X173140032Y-82819413D01*
X173240229Y-82771320D01*
X173326408Y-82738030D01*
X173356291Y-82728088D01*
X173380304Y-82720317D01*
X173395084Y-82715793D01*
X173398059Y-82715079D01*
X173394705Y-82719334D01*
G37*
G36*
X167627335Y-82729498D02*
G01*
X167727810Y-82766277D01*
X167832355Y-82815254D01*
X167938296Y-82874939D01*
X168042958Y-82943839D01*
X168130910Y-83010134D01*
X168171305Y-83044443D01*
X168217680Y-83086951D01*
X168267224Y-83134805D01*
X168317127Y-83185150D01*
X168364577Y-83235134D01*
X168406764Y-83281902D01*
X168440877Y-83322601D01*
X168449050Y-83333113D01*
X168477801Y-83372778D01*
X168506224Y-83415222D01*
X168532452Y-83457349D01*
X168554619Y-83496068D01*
X168570859Y-83528284D01*
X168578378Y-83547461D01*
X168583089Y-83569494D01*
X168582018Y-83589609D01*
X168573939Y-83610862D01*
X168557627Y-83636307D01*
X168531853Y-83668999D01*
X168527479Y-83674258D01*
X168484236Y-83727795D01*
X168442532Y-83783368D01*
X168399933Y-83844391D01*
X168354005Y-83914281D01*
X168333688Y-83946227D01*
X168308054Y-83986027D01*
X168281850Y-84024820D01*
X168253211Y-84065179D01*
X168220274Y-84109675D01*
X168181176Y-84160878D01*
X168136875Y-84217762D01*
X168129591Y-84225219D01*
X168127452Y-84219102D01*
X168127338Y-84215303D01*
X168129534Y-84194194D01*
X168135924Y-84162585D01*
X168145464Y-84124311D01*
X168157110Y-84083204D01*
X168169821Y-84043099D01*
X168182553Y-84007829D01*
X168186286Y-83998609D01*
X168214387Y-83938937D01*
X168250916Y-83872678D01*
X168293329Y-83803847D01*
X168339084Y-83736464D01*
X168385637Y-83674547D01*
X168410361Y-83644624D01*
X168428421Y-83622239D01*
X168441642Y-83603231D01*
X168447470Y-83591318D01*
X168447551Y-83590504D01*
X168442600Y-83575971D01*
X168428657Y-83551993D01*
X168407093Y-83520330D01*
X168379278Y-83482741D01*
X168346581Y-83440987D01*
X168310371Y-83396825D01*
X168272019Y-83352016D01*
X168232893Y-83308318D01*
X168203394Y-83276843D01*
X168170040Y-83243200D01*
X168126575Y-83201169D01*
X168074572Y-83152178D01*
X168015605Y-83097653D01*
X167951248Y-83039020D01*
X167883076Y-82977707D01*
X167812661Y-82915139D01*
X167741578Y-82852744D01*
X167671400Y-82791948D01*
X167619572Y-82747633D01*
X167581556Y-82715333D01*
X167627335Y-82729498D01*
G37*
G36*
X169646732Y-86641509D02*
G01*
X169622717Y-86684815D01*
X169600703Y-86731858D01*
X169582083Y-86778948D01*
X169568253Y-86822393D01*
X169560605Y-86858504D01*
X169559537Y-86872388D01*
X169566039Y-86919903D01*
X169585681Y-86961513D01*
X169617376Y-86996831D01*
X169660037Y-87025469D01*
X169712575Y-87047039D01*
X169773903Y-87061154D01*
X169842934Y-87067425D01*
X169918580Y-87065466D01*
X169999753Y-87054887D01*
X170045133Y-87045540D01*
X170144314Y-87014996D01*
X170236677Y-86970884D01*
X170322510Y-86913043D01*
X170394875Y-86848650D01*
X170427615Y-86816547D01*
X170452091Y-86794512D01*
X170470098Y-86781132D01*
X170483426Y-86774995D01*
X170489394Y-86774196D01*
X170500844Y-86776918D01*
X170515844Y-86786042D01*
X170536204Y-86803008D01*
X170563733Y-86829253D01*
X170583074Y-86848660D01*
X170642799Y-86903932D01*
X170704328Y-86949299D01*
X170770887Y-86986537D01*
X170845700Y-87017427D01*
X170931994Y-87043744D01*
X170941534Y-87046233D01*
X170995287Y-87056987D01*
X171054972Y-87063818D01*
X171115791Y-87066553D01*
X171172944Y-87065021D01*
X171221632Y-87059047D01*
X171232472Y-87056707D01*
X171295602Y-87036386D01*
X171346592Y-87009185D01*
X171384904Y-86975670D01*
X171410002Y-86936409D01*
X171421349Y-86891967D01*
X171420792Y-86857825D01*
X171415219Y-86832743D01*
X171404096Y-86798249D01*
X171389058Y-86758398D01*
X171371738Y-86717242D01*
X171353771Y-86678833D01*
X171336791Y-86647224D01*
X171334066Y-86642732D01*
X171321775Y-86622151D01*
X171317495Y-86611268D01*
X171320863Y-86607022D01*
X171329753Y-86606344D01*
X171350264Y-86610867D01*
X171378598Y-86622965D01*
X171410847Y-86640453D01*
X171443105Y-86661143D01*
X171471465Y-86682850D01*
X171479725Y-86690262D01*
X171520039Y-86736010D01*
X171546677Y-86785188D01*
X171560832Y-86840604D01*
X171563974Y-86888645D01*
X171563134Y-86924904D01*
X171559771Y-86952022D01*
X171552757Y-86976056D01*
X171543760Y-86997128D01*
X171508667Y-87054819D01*
X171461019Y-87105150D01*
X171402211Y-87146948D01*
X171333637Y-87179039D01*
X171323254Y-87182719D01*
X171237391Y-87204435D01*
X171145304Y-87213985D01*
X171049251Y-87211887D01*
X170951488Y-87198660D01*
X170854274Y-87174822D01*
X170759866Y-87140893D01*
X170670523Y-87097390D01*
X170588501Y-87044832D01*
X170535263Y-87001690D01*
X170486928Y-86958322D01*
X170453407Y-86992687D01*
X170410638Y-87030401D01*
X170356615Y-87068493D01*
X170295119Y-87104736D01*
X170229930Y-87136902D01*
X170164830Y-87162765D01*
X170164283Y-87162953D01*
X170094360Y-87183310D01*
X170018743Y-87198952D01*
X169941623Y-87209399D01*
X169867192Y-87214171D01*
X169799642Y-87212788D01*
X169764009Y-87208781D01*
X169680301Y-87190082D01*
X169606485Y-87162168D01*
X169543445Y-87125566D01*
X169492060Y-87080801D01*
X169453211Y-87028401D01*
X169448821Y-87020482D01*
X169424941Y-86960934D01*
X169414878Y-86899748D01*
X169418280Y-86839154D01*
X169434797Y-86781383D01*
X169464076Y-86728668D01*
X169501306Y-86687159D01*
X169540035Y-86657213D01*
X169582975Y-86631966D01*
X169624751Y-86614352D01*
X169644130Y-86609202D01*
X169669516Y-86604195D01*
X169646732Y-86641509D01*
G37*
G36*
X173515297Y-82451216D02*
G01*
X173524547Y-82452077D01*
X173545712Y-82455985D01*
X173562726Y-82462940D01*
X173580039Y-82475615D01*
X173602104Y-82496682D01*
X173606824Y-82501469D01*
X173639602Y-82541547D01*
X173672945Y-82594770D01*
X173705980Y-82659095D01*
X173737833Y-82732475D01*
X173767631Y-82812865D01*
X173794500Y-82898220D01*
X173817569Y-82986494D01*
X173821805Y-83005016D01*
X173837586Y-83080911D01*
X173849567Y-83151490D01*
X173858158Y-83220847D01*
X173863768Y-83293073D01*
X173866807Y-83372260D01*
X173867687Y-83462501D01*
X173867687Y-83462811D01*
X173865343Y-83585481D01*
X173858097Y-83697882D01*
X173845354Y-83804385D01*
X173826517Y-83909360D01*
X173800992Y-84017178D01*
X173783436Y-84080835D01*
X173734347Y-84233351D01*
X173678397Y-84374288D01*
X173615897Y-84503016D01*
X173547158Y-84618911D01*
X173472491Y-84721345D01*
X173457039Y-84739965D01*
X173440121Y-84759388D01*
X173428388Y-84773825D01*
X173422467Y-84785785D01*
X173422985Y-84797775D01*
X173430568Y-84812303D01*
X173445845Y-84831876D01*
X173469443Y-84859004D01*
X173493728Y-84886675D01*
X173573347Y-84987683D01*
X173648079Y-85101722D01*
X173717197Y-85227141D01*
X173779980Y-85362293D01*
X173835701Y-85505526D01*
X173883637Y-85655191D01*
X173923065Y-85809639D01*
X173943823Y-85912015D01*
X173955919Y-85981327D01*
X173965335Y-86043009D01*
X173972372Y-86100733D01*
X173977334Y-86158174D01*
X173980522Y-86219007D01*
X173982240Y-86286905D01*
X173982791Y-86365542D01*
X173982784Y-86385070D01*
X173982039Y-86469974D01*
X173979906Y-86541505D01*
X173976163Y-86601504D01*
X173970591Y-86651813D01*
X173962968Y-86694273D01*
X173953073Y-86730727D01*
X173940685Y-86763015D01*
X173936329Y-86772415D01*
X173918317Y-86801749D01*
X173895651Y-86822313D01*
X173866327Y-86834712D01*
X173828340Y-86839553D01*
X173779686Y-86837440D01*
X173738582Y-86832205D01*
X173631657Y-86810119D01*
X173519256Y-86775668D01*
X173403500Y-86729719D01*
X173286512Y-86673143D01*
X173170412Y-86606807D01*
X173137806Y-86586251D01*
X173113505Y-86570780D01*
X173094670Y-86559128D01*
X173084502Y-86553265D01*
X173083634Y-86552928D01*
X173084490Y-86559680D01*
X173088866Y-86577694D01*
X173095923Y-86603610D01*
X173099173Y-86614973D01*
X173129995Y-86741740D01*
X173151453Y-86875054D01*
X173163684Y-87012662D01*
X173166830Y-87152311D01*
X173161028Y-87291749D01*
X173146418Y-87428722D01*
X173123140Y-87560980D01*
X173091332Y-87686268D01*
X173051135Y-87802334D01*
X173021575Y-87869687D01*
X172993053Y-87922387D01*
X172964501Y-87960443D01*
X172934638Y-87984421D01*
X172902183Y-87994884D01*
X172865854Y-87992397D01*
X172824370Y-87977527D01*
X172802425Y-87966253D01*
X172735899Y-87923725D01*
X172666017Y-87868615D01*
X172594480Y-87802741D01*
X172522988Y-87727920D01*
X172453240Y-87645969D01*
X172386936Y-87558704D01*
X172325777Y-87467942D01*
X172305654Y-87435274D01*
X172257154Y-87354525D01*
X172252722Y-87432796D01*
X172244250Y-87518462D01*
X172228631Y-87610624D01*
X172206687Y-87707065D01*
X172179237Y-87805571D01*
X172147103Y-87903924D01*
X172111103Y-87999909D01*
X172072060Y-88091309D01*
X172030794Y-88175910D01*
X171988124Y-88251493D01*
X171944872Y-88315845D01*
X171910169Y-88358002D01*
X171873853Y-88391450D01*
X171839563Y-88410235D01*
X171806261Y-88414644D01*
X171772908Y-88404964D01*
X171761892Y-88398838D01*
X171731952Y-88375733D01*
X171696902Y-88341019D01*
X171658324Y-88296804D01*
X171617800Y-88245192D01*
X171576911Y-88188291D01*
X171537239Y-88128205D01*
X171500366Y-88067041D01*
X171468616Y-88008370D01*
X171452249Y-87976710D01*
X171438224Y-87950725D01*
X171428012Y-87933058D01*
X171423080Y-87926353D01*
X171423038Y-87926348D01*
X171418769Y-87932969D01*
X171410895Y-87950625D01*
X171400877Y-87975957D01*
X171397343Y-87985446D01*
X171366292Y-88061723D01*
X171328822Y-88139982D01*
X171286397Y-88217992D01*
X171240480Y-88293525D01*
X171192535Y-88364351D01*
X171144026Y-88428241D01*
X171096415Y-88482967D01*
X171051167Y-88526298D01*
X171032591Y-88541027D01*
X170996826Y-88564789D01*
X170967540Y-88577415D01*
X170941433Y-88579488D01*
X170915205Y-88571586D01*
X170901138Y-88564148D01*
X170869219Y-88540062D01*
X170832978Y-88503357D01*
X170793504Y-88455685D01*
X170751885Y-88398697D01*
X170709209Y-88334044D01*
X170666565Y-88263376D01*
X170625040Y-88188344D01*
X170585722Y-88110600D01*
X170549700Y-88031795D01*
X170548633Y-88029318D01*
X170532289Y-87991831D01*
X170520272Y-87966222D01*
X170511111Y-87950252D01*
X170503339Y-87941683D01*
X170495487Y-87938274D01*
X170488571Y-87937759D01*
X170668817Y-87937759D01*
X170704660Y-88014058D01*
X170800707Y-88202230D01*
X170891287Y-88354946D01*
X170953980Y-88453688D01*
X170975411Y-88428436D01*
X170987719Y-88412664D01*
X171006170Y-88387449D01*
X171028434Y-88356040D01*
X171052182Y-88321687D01*
X171056435Y-88315440D01*
X171127191Y-88204710D01*
X171185900Y-88098779D01*
X171219492Y-88028022D01*
X171232253Y-87997835D01*
X171245991Y-87963482D01*
X171259639Y-87927882D01*
X171272128Y-87893953D01*
X171282391Y-87864616D01*
X171289359Y-87842789D01*
X171291964Y-87831392D01*
X171291777Y-87830477D01*
X171283980Y-87831272D01*
X171264571Y-87835065D01*
X171236754Y-87841193D01*
X171213397Y-87846661D01*
X171130085Y-87865589D01*
X171046095Y-87882791D01*
X170965032Y-87897618D01*
X170890500Y-87909418D01*
X170826104Y-87917543D01*
X170812826Y-87918850D01*
X170773847Y-87922656D01*
X170738277Y-87926536D01*
X170710050Y-87930033D01*
X170693135Y-87932687D01*
X170668817Y-87937759D01*
X170488571Y-87937759D01*
X170476871Y-87939313D01*
X170468074Y-87946088D01*
X170459634Y-87961252D01*
X170449682Y-87986175D01*
X170439136Y-88012054D01*
X170423759Y-88047032D01*
X170405591Y-88086581D01*
X170386672Y-88126173D01*
X170386107Y-88127328D01*
X170345320Y-88206773D01*
X170303162Y-88281622D01*
X170260507Y-88350740D01*
X170218233Y-88412991D01*
X170177215Y-88467239D01*
X170138328Y-88512349D01*
X170102450Y-88547185D01*
X170070456Y-88570610D01*
X170043222Y-88581490D01*
X170035337Y-88582132D01*
X170016917Y-88578414D01*
X169992706Y-88569385D01*
X169980668Y-88563627D01*
X169954611Y-88546053D01*
X169922387Y-88518075D01*
X169886196Y-88482050D01*
X169848240Y-88440334D01*
X169810721Y-88395282D01*
X169775841Y-88349251D01*
X169762474Y-88330143D01*
X169692073Y-88217712D01*
X169632073Y-88101631D01*
X169593565Y-88012595D01*
X169556192Y-87919573D01*
X169516380Y-87999665D01*
X169485624Y-88057251D01*
X169449660Y-88117498D01*
X169410335Y-88177830D01*
X169369498Y-88235668D01*
X169328994Y-88288437D01*
X169290672Y-88333559D01*
X169256378Y-88368457D01*
X169244878Y-88378427D01*
X169209128Y-88402537D01*
X169175694Y-88413732D01*
X169143338Y-88411654D01*
X169110820Y-88395943D01*
X169076903Y-88366241D01*
X169040347Y-88322188D01*
X169037522Y-88318374D01*
X168981632Y-88233682D01*
X168928754Y-88136565D01*
X168879824Y-88029718D01*
X168835781Y-87915835D01*
X168797561Y-87797609D01*
X168766102Y-87677733D01*
X168742341Y-87558903D01*
X168727216Y-87443812D01*
X168726667Y-87437362D01*
X168872098Y-87437362D01*
X168874543Y-87456438D01*
X168879089Y-87484748D01*
X168885220Y-87519440D01*
X168892422Y-87557663D01*
X168900180Y-87596566D01*
X168907979Y-87633297D01*
X168912591Y-87653652D01*
X168932860Y-87732076D01*
X168958274Y-87817458D01*
X168986775Y-87903301D01*
X169016306Y-87983110D01*
X169019724Y-87991732D01*
X169037074Y-88033541D01*
X169056504Y-88077703D01*
X169076985Y-88122160D01*
X169097488Y-88164858D01*
X169116984Y-88203741D01*
X169134442Y-88236753D01*
X169148833Y-88261839D01*
X169159128Y-88276942D01*
X169164173Y-88280178D01*
X169170660Y-88271616D01*
X169183954Y-88253227D01*
X169202128Y-88227701D01*
X169223256Y-88197724D01*
X169223641Y-88197176D01*
X169278005Y-88116514D01*
X169325567Y-88038521D01*
X169370023Y-87956868D01*
X169404488Y-87887465D01*
X169426971Y-87840703D01*
X169430236Y-87833674D01*
X169689788Y-87833674D01*
X169693661Y-87851861D01*
X169702262Y-87879497D01*
X169714728Y-87914391D01*
X169730196Y-87954353D01*
X169747803Y-87997195D01*
X169766686Y-88040725D01*
X169785982Y-88082754D01*
X169804829Y-88121092D01*
X169814767Y-88139952D01*
X169836402Y-88178141D01*
X169861376Y-88219553D01*
X169888416Y-88262351D01*
X169916246Y-88304697D01*
X169943588Y-88344753D01*
X169969168Y-88380681D01*
X169991710Y-88410644D01*
X170009939Y-88432804D01*
X170022577Y-88445323D01*
X170027954Y-88447031D01*
X170033767Y-88438939D01*
X170046237Y-88420283D01*
X170063841Y-88393381D01*
X170085057Y-88360551D01*
X170099298Y-88338330D01*
X170124145Y-88297737D01*
X170153080Y-88247717D01*
X170183674Y-88192639D01*
X170213496Y-88136875D01*
X170238589Y-88087864D01*
X170263860Y-88036952D01*
X170282536Y-87998074D01*
X170294828Y-87969603D01*
X170300944Y-87949916D01*
X170301095Y-87937385D01*
X170295490Y-87930386D01*
X170284340Y-87927294D01*
X170267854Y-87926482D01*
X170259429Y-87926431D01*
X170213353Y-87924163D01*
X170154784Y-87917893D01*
X170085857Y-87907978D01*
X170008704Y-87894772D01*
X169925457Y-87878632D01*
X169838249Y-87859912D01*
X169780943Y-87846647D01*
X169747128Y-87838746D01*
X169718654Y-87832379D01*
X169698882Y-87828280D01*
X169691506Y-87827125D01*
X169689788Y-87833674D01*
X169430236Y-87833674D01*
X169443209Y-87805748D01*
X169453239Y-87780501D01*
X169457095Y-87762862D01*
X169454814Y-87750732D01*
X169446433Y-87742011D01*
X169431988Y-87734599D01*
X169411514Y-87726397D01*
X169407290Y-87724715D01*
X169335172Y-87693531D01*
X169255083Y-87654991D01*
X169171000Y-87611228D01*
X169086898Y-87564377D01*
X169006756Y-87516573D01*
X168941881Y-87474889D01*
X168914204Y-87456539D01*
X168891536Y-87441866D01*
X168876652Y-87432642D01*
X168872268Y-87430369D01*
X168872098Y-87437362D01*
X168726667Y-87437362D01*
X168725277Y-87421044D01*
X168720165Y-87354495D01*
X168682110Y-87421044D01*
X168628399Y-87507591D01*
X168566526Y-87594573D01*
X168498809Y-87679335D01*
X168427567Y-87759222D01*
X168355116Y-87831579D01*
X168283775Y-87893751D01*
X168241544Y-87925717D01*
X168189448Y-87960000D01*
X168145427Y-87982779D01*
X168107923Y-87994387D01*
X168075380Y-87995155D01*
X168046242Y-87985417D01*
X168026087Y-87971750D01*
X168002847Y-87946166D01*
X167978247Y-87907503D01*
X167953111Y-87857785D01*
X167928261Y-87799036D01*
X167904520Y-87733280D01*
X167882711Y-87662541D01*
X167863657Y-87588843D01*
X167855614Y-87552448D01*
X167838750Y-87462437D01*
X167826736Y-87375866D01*
X167819203Y-87288281D01*
X167815782Y-87195230D01*
X167816087Y-87097067D01*
X167961688Y-87097067D01*
X167965367Y-87268395D01*
X167983610Y-87441475D01*
X168016368Y-87615537D01*
X168062820Y-87787340D01*
X168089640Y-87873449D01*
X168114090Y-87856099D01*
X168127879Y-87844900D01*
X168150055Y-87825257D01*
X168178136Y-87799438D01*
X168209641Y-87769711D01*
X168229183Y-87750916D01*
X168288397Y-87691861D01*
X168341191Y-87635223D01*
X168390248Y-87577721D01*
X168438250Y-87516076D01*
X168487880Y-87447009D01*
X168536702Y-87374970D01*
X168631672Y-87231827D01*
X168561979Y-87156484D01*
X168449222Y-87025371D01*
X168348703Y-86889325D01*
X168261200Y-86749573D01*
X168187487Y-86607342D01*
X168133971Y-86479293D01*
X168100769Y-86389697D01*
X168086763Y-86435071D01*
X168065479Y-86505769D01*
X168045345Y-86575974D01*
X168027242Y-86642430D01*
X168012048Y-86701880D01*
X168000644Y-86751069D01*
X167998212Y-86762751D01*
X167972619Y-86928263D01*
X167961688Y-87097067D01*
X167816087Y-87097067D01*
X167816102Y-87092260D01*
X167816367Y-87079393D01*
X167821553Y-86958880D01*
X167831737Y-86850007D01*
X167847312Y-86749864D01*
X167868671Y-86655542D01*
X167878089Y-86621631D01*
X167886351Y-86592711D01*
X167892467Y-86570160D01*
X167895539Y-86557344D01*
X167895688Y-86555650D01*
X167889102Y-86558962D01*
X167872079Y-86568844D01*
X167847141Y-86583800D01*
X167816807Y-86602338D01*
X167814268Y-86603903D01*
X167734091Y-86650636D01*
X167652468Y-86693128D01*
X167570778Y-86730988D01*
X167490399Y-86763828D01*
X167412709Y-86791257D01*
X167339086Y-86812887D01*
X167270908Y-86828327D01*
X167209553Y-86837189D01*
X167156399Y-86839082D01*
X167112825Y-86833618D01*
X167080208Y-86820407D01*
X167071570Y-86813821D01*
X167052908Y-86791026D01*
X167037031Y-86758355D01*
X167023691Y-86714801D01*
X167133411Y-86714801D01*
X167166736Y-86709307D01*
X167187528Y-86704875D01*
X167218462Y-86697052D01*
X167255113Y-86687000D01*
X167287804Y-86677470D01*
X167444891Y-86622416D01*
X167597649Y-86553070D01*
X167744969Y-86470055D01*
X167866323Y-86387244D01*
X168253848Y-86387244D01*
X168259722Y-86407165D01*
X168272238Y-86439719D01*
X168277708Y-86453740D01*
X168314163Y-86537899D01*
X168359827Y-86627675D01*
X168412237Y-86718856D01*
X168468930Y-86807230D01*
X168527444Y-86888584D01*
X168545418Y-86911535D01*
X168662958Y-87046189D01*
X168791517Y-87170636D01*
X168930527Y-87284598D01*
X169079418Y-87387799D01*
X169237622Y-87479959D01*
X169404569Y-87560802D01*
X169579693Y-87630049D01*
X169762422Y-87687422D01*
X169952190Y-87732644D01*
X170148426Y-87765436D01*
X170332141Y-87784242D01*
X170366651Y-87785714D01*
X170413188Y-87786219D01*
X170468556Y-87785852D01*
X170529559Y-87784707D01*
X170593002Y-87782878D01*
X170655688Y-87780461D01*
X170714423Y-87777549D01*
X170766008Y-87774237D01*
X170807250Y-87770621D01*
X170812540Y-87770035D01*
X170915411Y-87754484D01*
X171516417Y-87754484D01*
X171518324Y-87762068D01*
X171525881Y-87780742D01*
X171537890Y-87807958D01*
X171553150Y-87841168D01*
X171570463Y-87877826D01*
X171588630Y-87915384D01*
X171606450Y-87951295D01*
X171622725Y-87983013D01*
X171633249Y-88002613D01*
X171659104Y-88047034D01*
X171692461Y-88100624D01*
X171731463Y-88160502D01*
X171774254Y-88223784D01*
X171793829Y-88251999D01*
X171803994Y-88266111D01*
X171812169Y-88274242D01*
X171819859Y-88275109D01*
X171828570Y-88267429D01*
X171839807Y-88249920D01*
X171855074Y-88221299D01*
X171874276Y-88183456D01*
X171934370Y-88053928D01*
X171988205Y-87916670D01*
X172034230Y-87776285D01*
X172070894Y-87637378D01*
X172090602Y-87541003D01*
X172096447Y-87508404D01*
X172101672Y-87479959D01*
X172105444Y-87460171D01*
X172106387Y-87455562D01*
X172105808Y-87450550D01*
X172099957Y-87450317D01*
X172087292Y-87455619D01*
X172066268Y-87467215D01*
X172035343Y-87485860D01*
X172001232Y-87507116D01*
X171938279Y-87545178D01*
X171868239Y-87584994D01*
X171794955Y-87624547D01*
X171722271Y-87661821D01*
X171654029Y-87694800D01*
X171594074Y-87721467D01*
X171587263Y-87724294D01*
X171557755Y-87736525D01*
X171534122Y-87746516D01*
X171519528Y-87752917D01*
X171516417Y-87754484D01*
X170915411Y-87754484D01*
X171004457Y-87741023D01*
X171192698Y-87698672D01*
X171376104Y-87643454D01*
X171553517Y-87575839D01*
X171723781Y-87496298D01*
X171885737Y-87405300D01*
X172038227Y-87303317D01*
X172121992Y-87239103D01*
X172352828Y-87239103D01*
X172432414Y-87359534D01*
X172479969Y-87430334D01*
X172522452Y-87490827D01*
X172562188Y-87544053D01*
X172601500Y-87593053D01*
X172642714Y-87640866D01*
X172672615Y-87673826D01*
X172702263Y-87704908D01*
X172734853Y-87737333D01*
X172768522Y-87769443D01*
X172801407Y-87799580D01*
X172831647Y-87826085D01*
X172857379Y-87847301D01*
X172876740Y-87861569D01*
X172887868Y-87867231D01*
X172889465Y-87866882D01*
X172893611Y-87857830D01*
X172900993Y-87837202D01*
X172910563Y-87808068D01*
X172921211Y-87773716D01*
X172952043Y-87664465D01*
X172975835Y-87562935D01*
X172993242Y-87464652D01*
X173004916Y-87365146D01*
X173011509Y-87259943D01*
X173013676Y-87144573D01*
X173013679Y-87140432D01*
X173012204Y-87039011D01*
X173007300Y-86946805D01*
X172998362Y-86860029D01*
X172984787Y-86774897D01*
X172965969Y-86687623D01*
X172941304Y-86594422D01*
X172910188Y-86491506D01*
X172909926Y-86490678D01*
X172885934Y-86414996D01*
X172856854Y-86492064D01*
X172834007Y-86547454D01*
X172804561Y-86611068D01*
X172770714Y-86678661D01*
X172734665Y-86745988D01*
X172698612Y-86808804D01*
X172665180Y-86862219D01*
X172616547Y-86931639D01*
X172559956Y-87005767D01*
X172499319Y-87079723D01*
X172438550Y-87148627D01*
X172417404Y-87171246D01*
X172352828Y-87239103D01*
X172121992Y-87239103D01*
X172125172Y-87236665D01*
X172177459Y-87192047D01*
X172235072Y-87138758D01*
X172294356Y-87080463D01*
X172351657Y-87020828D01*
X172403318Y-86963519D01*
X172434132Y-86926795D01*
X172494543Y-86848724D01*
X172546739Y-86773600D01*
X172594671Y-86695389D01*
X172639993Y-86612470D01*
X172658715Y-86575238D01*
X172678055Y-86534470D01*
X172696838Y-86492911D01*
X172713893Y-86453306D01*
X172728044Y-86418401D01*
X172738120Y-86390939D01*
X172742945Y-86373666D01*
X172743196Y-86371069D01*
X172736821Y-86371677D01*
X172719353Y-86378204D01*
X172693281Y-86389608D01*
X172661092Y-86404847D01*
X172652512Y-86409068D01*
X172534015Y-86460878D01*
X172405646Y-86504238D01*
X172270815Y-86538210D01*
X172132935Y-86561858D01*
X172071763Y-86568790D01*
X172010551Y-86572746D01*
X171939670Y-86574290D01*
X171863854Y-86573550D01*
X171787832Y-86570656D01*
X171716338Y-86565738D01*
X171654101Y-86558927D01*
X171640673Y-86556963D01*
X171500690Y-86529344D01*
X171366825Y-86491252D01*
X171252324Y-86447916D01*
X171841320Y-86447916D01*
X171843330Y-86454072D01*
X171848814Y-86456522D01*
X171863988Y-86458129D01*
X171891365Y-86458358D01*
X171927965Y-86457368D01*
X171970808Y-86455316D01*
X172016914Y-86452361D01*
X172063304Y-86448660D01*
X172106997Y-86444372D01*
X172130703Y-86441580D01*
X172257730Y-86419707D01*
X172380058Y-86387395D01*
X172496524Y-86345368D01*
X172605963Y-86294350D01*
X172707211Y-86235065D01*
X172799105Y-86168238D01*
X172880480Y-86094593D01*
X172950173Y-86014855D01*
X173007019Y-85929747D01*
X173032672Y-85880302D01*
X173056602Y-85825259D01*
X173073048Y-85776663D01*
X173083227Y-85728994D01*
X173088360Y-85676731D01*
X173089671Y-85622078D01*
X173087091Y-85551353D01*
X173078273Y-85489538D01*
X173061933Y-85431110D01*
X173036791Y-85370548D01*
X173026287Y-85349038D01*
X172976807Y-85264136D01*
X172917172Y-85186785D01*
X172845611Y-85114931D01*
X172775868Y-85057974D01*
X172665085Y-84984218D01*
X172544794Y-84921920D01*
X172415895Y-84871378D01*
X172279289Y-84832890D01*
X172135875Y-84806754D01*
X171986553Y-84793268D01*
X171974869Y-84792764D01*
X171858901Y-84788147D01*
X171890023Y-84867428D01*
X171925641Y-84972774D01*
X171954865Y-85089717D01*
X171977583Y-85215948D01*
X171993679Y-85349155D01*
X172003040Y-85487027D01*
X172005552Y-85627253D01*
X172001100Y-85767524D01*
X171989571Y-85905527D01*
X171970849Y-86038953D01*
X171952519Y-86132392D01*
X171937368Y-86193833D01*
X171919448Y-86255615D01*
X171899996Y-86314074D01*
X171880246Y-86365550D01*
X171861436Y-86406381D01*
X171857773Y-86413167D01*
X171845905Y-86435388D01*
X171841320Y-86447916D01*
X171252324Y-86447916D01*
X171240109Y-86443293D01*
X171121569Y-86386074D01*
X171012237Y-86320199D01*
X170913142Y-86246276D01*
X170825312Y-86164910D01*
X170749778Y-86076707D01*
X170699787Y-86003105D01*
X170651599Y-85910038D01*
X170616886Y-85812878D01*
X170595919Y-85713319D01*
X170590229Y-85631268D01*
X170715233Y-85631268D01*
X170724031Y-85721745D01*
X170746564Y-85810985D01*
X170782593Y-85898115D01*
X170831879Y-85982260D01*
X170894182Y-86062546D01*
X170969262Y-86138100D01*
X171056879Y-86208047D01*
X171083150Y-86226189D01*
X171134974Y-86259495D01*
X171184184Y-86287803D01*
X171236109Y-86313935D01*
X171296081Y-86340715D01*
X171312586Y-86347686D01*
X171347381Y-86362111D01*
X171370483Y-86371204D01*
X171384198Y-86375710D01*
X171390831Y-86376371D01*
X171392688Y-86373933D01*
X171392700Y-86373544D01*
X171390351Y-86365243D01*
X171383942Y-86345431D01*
X171374432Y-86317007D01*
X171362779Y-86282873D01*
X171361871Y-86280240D01*
X171328583Y-86167478D01*
X171302211Y-86043798D01*
X171282956Y-85911985D01*
X171271022Y-85774825D01*
X171266608Y-85635102D01*
X171269918Y-85495601D01*
X171281152Y-85359108D01*
X171290186Y-85290291D01*
X171299711Y-85231307D01*
X171311002Y-85169155D01*
X171323361Y-85107114D01*
X171336090Y-85048460D01*
X171348490Y-84996473D01*
X171359862Y-84954430D01*
X171365674Y-84936005D01*
X171374415Y-84909032D01*
X171380259Y-84888180D01*
X171382203Y-84877126D01*
X171381974Y-84876337D01*
X171373305Y-84877245D01*
X171353536Y-84883731D01*
X171325296Y-84894715D01*
X171291213Y-84909112D01*
X171253918Y-84925842D01*
X171216037Y-84943820D01*
X171205767Y-84948889D01*
X171116686Y-84998985D01*
X171031851Y-85057780D01*
X170953915Y-85123023D01*
X170885528Y-85192464D01*
X170829342Y-85263851D01*
X170822199Y-85274484D01*
X170773655Y-85361164D01*
X170739806Y-85450104D01*
X170720412Y-85540430D01*
X170715233Y-85631268D01*
X170590229Y-85631268D01*
X170588966Y-85613057D01*
X170596298Y-85513785D01*
X170610647Y-85443597D01*
X170616428Y-85419507D01*
X170619583Y-85402100D01*
X170619590Y-85395779D01*
X170612183Y-85398003D01*
X170595427Y-85406555D01*
X170572874Y-85419616D01*
X170571718Y-85420318D01*
X170545643Y-85435232D01*
X170525846Y-85443058D01*
X170506150Y-85445530D01*
X170484740Y-85444705D01*
X170447759Y-85438191D01*
X170412521Y-85422613D01*
X170402336Y-85416548D01*
X170380949Y-85403899D01*
X170365318Y-85395875D01*
X170359251Y-85394199D01*
X170359846Y-85402344D01*
X170363802Y-85421418D01*
X170370319Y-85447667D01*
X170372068Y-85454220D01*
X170382337Y-85507387D01*
X170387885Y-85570014D01*
X170388718Y-85637055D01*
X170384845Y-85703462D01*
X170376273Y-85764188D01*
X170371553Y-85785663D01*
X170338576Y-85887313D01*
X170291673Y-85984173D01*
X170231568Y-86075712D01*
X170158989Y-86161403D01*
X170074662Y-86240716D01*
X169979312Y-86313122D01*
X169873665Y-86378093D01*
X169758448Y-86435099D01*
X169634386Y-86483612D01*
X169502206Y-86523102D01*
X169362633Y-86553041D01*
X169305917Y-86562077D01*
X169261683Y-86566725D01*
X169205959Y-86569936D01*
X169142309Y-86571741D01*
X169074295Y-86572170D01*
X169005481Y-86571251D01*
X168939429Y-86569017D01*
X168879702Y-86565495D01*
X168829863Y-86560717D01*
X168809973Y-86557900D01*
X168657272Y-86527067D01*
X168515542Y-86486306D01*
X168383947Y-86435360D01*
X168322927Y-86406606D01*
X168289155Y-86389636D01*
X168267256Y-86379842D01*
X168255924Y-86378591D01*
X168253848Y-86387244D01*
X167866323Y-86387244D01*
X167885740Y-86373994D01*
X168016461Y-86267636D01*
X168054611Y-86233865D01*
X167993064Y-86170222D01*
X167931068Y-86101143D01*
X167880907Y-86033402D01*
X167840115Y-85963012D01*
X167806227Y-85885984D01*
X167790960Y-85843314D01*
X167765407Y-85743719D01*
X167754779Y-85643033D01*
X167755784Y-85618263D01*
X167888828Y-85618263D01*
X167890925Y-85683006D01*
X167898664Y-85740177D01*
X167913310Y-85795228D01*
X167936127Y-85853611D01*
X167950781Y-85885311D01*
X167981215Y-85943501D01*
X168014020Y-85994807D01*
X168052316Y-86043402D01*
X168099224Y-86093460D01*
X168125518Y-86119046D01*
X168219548Y-86198136D01*
X168325605Y-86267997D01*
X168443784Y-86328686D01*
X168505380Y-86354790D01*
X168543575Y-86368433D01*
X168592391Y-86383617D01*
X168647430Y-86399167D01*
X168704298Y-86413911D01*
X168758596Y-86426675D01*
X168805930Y-86436284D01*
X168819074Y-86438532D01*
X168860709Y-86444330D01*
X168906888Y-86449289D01*
X168955001Y-86453291D01*
X169002436Y-86456221D01*
X169046583Y-86457961D01*
X169084831Y-86458394D01*
X169114570Y-86457404D01*
X169133189Y-86454874D01*
X169137737Y-86452790D01*
X169136561Y-86444495D01*
X169129418Y-86426984D01*
X169119583Y-86407353D01*
X169103193Y-86371980D01*
X169585467Y-86371980D01*
X169586654Y-86375791D01*
X169594213Y-86375156D01*
X169610496Y-86369707D01*
X169637857Y-86359077D01*
X169649124Y-86354606D01*
X169770141Y-86300097D01*
X169878618Y-86237592D01*
X169975274Y-86166648D01*
X170024313Y-86123250D01*
X170082993Y-86063833D01*
X170130631Y-86006323D01*
X170170255Y-85946731D01*
X170199174Y-85892941D01*
X170223991Y-85838325D01*
X170241275Y-85789151D01*
X170252444Y-85739748D01*
X170258917Y-85684443D01*
X170261182Y-85644968D01*
X170259047Y-85551847D01*
X170244255Y-85464299D01*
X170216266Y-85380987D01*
X170174537Y-85300572D01*
X170118527Y-85221716D01*
X170065486Y-85161384D01*
X169982366Y-85083512D01*
X169889418Y-85014770D01*
X169785211Y-84954196D01*
X169692751Y-84910960D01*
X169652457Y-84894020D01*
X169624344Y-84882811D01*
X169606632Y-84876900D01*
X169597541Y-84875858D01*
X169595292Y-84879253D01*
X169598105Y-84886654D01*
X169598930Y-84888224D01*
X169605630Y-84905275D01*
X169614543Y-84934518D01*
X169624981Y-84973160D01*
X169636260Y-85018413D01*
X169647692Y-85067484D01*
X169658591Y-85117584D01*
X169668272Y-85165922D01*
X169671508Y-85183358D01*
X169683860Y-85254213D01*
X169693247Y-85315097D01*
X169700199Y-85370894D01*
X169705244Y-85426486D01*
X169708913Y-85486757D01*
X169711626Y-85553409D01*
X169712266Y-85690534D01*
X169705100Y-85827148D01*
X169690506Y-85960753D01*
X169668865Y-86088848D01*
X169640557Y-86208935D01*
X169605963Y-86318514D01*
X169588298Y-86364088D01*
X169585467Y-86371980D01*
X169103193Y-86371980D01*
X169095215Y-86354763D01*
X169071348Y-86289462D01*
X169048650Y-86213999D01*
X169027790Y-86130923D01*
X169009436Y-86042781D01*
X168994254Y-85952123D01*
X168987780Y-85904385D01*
X168983705Y-85860163D01*
X168980683Y-85803747D01*
X168978694Y-85738164D01*
X168977717Y-85666444D01*
X168977730Y-85591614D01*
X168978712Y-85516702D01*
X168980643Y-85444736D01*
X168983501Y-85378743D01*
X168987265Y-85321753D01*
X168991914Y-85276793D01*
X168992169Y-85274917D01*
X169010741Y-85158229D01*
X169032805Y-85051395D01*
X169057986Y-84955920D01*
X169085912Y-84873307D01*
X169100429Y-84838106D01*
X169110286Y-84815195D01*
X169117015Y-84798363D01*
X169118984Y-84792100D01*
X169111799Y-84790999D01*
X169091983Y-84790628D01*
X169062147Y-84790970D01*
X169024904Y-84792007D01*
X169002628Y-84792851D01*
X168857301Y-84804951D01*
X168717684Y-84828798D01*
X168584801Y-84863999D01*
X168459677Y-84910165D01*
X168343336Y-84966903D01*
X168236802Y-85033824D01*
X168141099Y-85110536D01*
X168120733Y-85129518D01*
X168046242Y-85208596D01*
X167986617Y-85288979D01*
X167941473Y-85371479D01*
X167910424Y-85456910D01*
X167893083Y-85546083D01*
X167888828Y-85618263D01*
X167755784Y-85618263D01*
X167758871Y-85542149D01*
X167777479Y-85441963D01*
X167810399Y-85343371D01*
X167857425Y-85247268D01*
X167918353Y-85154548D01*
X167960381Y-85102208D01*
X167982644Y-85073812D01*
X167994423Y-85051878D01*
X167997386Y-85035954D01*
X167998914Y-85017906D01*
X168003105Y-84988152D01*
X168009372Y-84949895D01*
X168017125Y-84906339D01*
X168025777Y-84860688D01*
X168034740Y-84816145D01*
X168043426Y-84775913D01*
X168050876Y-84744638D01*
X168082512Y-84645549D01*
X168125320Y-84549383D01*
X168159363Y-84489035D01*
X168182472Y-84452816D01*
X168204183Y-84420616D01*
X168223101Y-84394314D01*
X168237832Y-84375788D01*
X168246982Y-84366916D01*
X168249347Y-84367815D01*
X168248339Y-84384870D01*
X168245058Y-84414429D01*
X168239879Y-84453971D01*
X168233177Y-84500972D01*
X168225328Y-84552909D01*
X168216707Y-84607259D01*
X168207689Y-84661499D01*
X168198651Y-84713106D01*
X168194975Y-84733193D01*
X168186135Y-84781397D01*
X168178341Y-84825047D01*
X168172007Y-84861730D01*
X168167547Y-84889028D01*
X168165376Y-84904526D01*
X168165232Y-84906607D01*
X168167592Y-84911929D01*
X168176125Y-84910450D01*
X168193037Y-84901346D01*
X168212931Y-84888767D01*
X168289182Y-84844306D01*
X168376903Y-84802069D01*
X168472318Y-84763591D01*
X168571652Y-84730408D01*
X168661189Y-84706363D01*
X168699278Y-84697353D01*
X168732276Y-84689496D01*
X168757212Y-84683501D01*
X168771117Y-84680080D01*
X168772653Y-84679674D01*
X168779317Y-84672590D01*
X168788649Y-84659484D01*
X168957803Y-84659484D01*
X169075379Y-84659585D01*
X169124648Y-84660247D01*
X169176484Y-84661988D01*
X169225327Y-84664559D01*
X169265615Y-84667710D01*
X169272326Y-84668407D01*
X169379884Y-84683926D01*
X169487512Y-84706450D01*
X169591656Y-84734975D01*
X169688760Y-84768499D01*
X169775271Y-84806020D01*
X169794232Y-84815597D01*
X169816815Y-84826638D01*
X169834582Y-84834015D01*
X169841456Y-84835841D01*
X169841944Y-84829918D01*
X169835824Y-84813709D01*
X169824281Y-84790048D01*
X169815635Y-84774144D01*
X169764600Y-84675346D01*
X169716656Y-84566968D01*
X169673151Y-84452921D01*
X169635430Y-84337116D01*
X169604838Y-84223465D01*
X169582721Y-84115878D01*
X169577444Y-84081893D01*
X169565213Y-83995207D01*
X169485160Y-84058961D01*
X169376288Y-84152769D01*
X169268847Y-84259114D01*
X169165223Y-84375305D01*
X169067803Y-84498650D01*
X168978973Y-84626457D01*
X168970824Y-84639114D01*
X168957803Y-84659484D01*
X168788649Y-84659484D01*
X168792091Y-84654650D01*
X168809420Y-84628193D01*
X168829748Y-84595557D01*
X168840926Y-84577024D01*
X168933094Y-84435403D01*
X169036736Y-84299465D01*
X169148807Y-84173128D01*
X169179671Y-84141614D01*
X169257237Y-84067150D01*
X169329934Y-84003495D01*
X169397293Y-83950923D01*
X169458849Y-83909705D01*
X169514135Y-83880113D01*
X169562684Y-83862419D01*
X169604029Y-83856895D01*
X169637703Y-83863813D01*
X169647377Y-83869084D01*
X169654187Y-83873641D01*
X169659734Y-83878551D01*
X169664613Y-83885680D01*
X169669419Y-83896894D01*
X169674748Y-83914059D01*
X169681194Y-83939042D01*
X169689353Y-83973709D01*
X169699820Y-84019925D01*
X169710055Y-84065575D01*
X169751202Y-84224952D01*
X169801759Y-84379160D01*
X169861055Y-84527042D01*
X169928417Y-84667440D01*
X170003172Y-84799200D01*
X170084647Y-84921165D01*
X170172171Y-85032178D01*
X170265069Y-85131082D01*
X170362671Y-85216722D01*
X170393181Y-85239959D01*
X170424000Y-85262513D01*
X170450869Y-85281989D01*
X170471139Y-85296482D01*
X170482162Y-85304084D01*
X170482826Y-85304496D01*
X170493189Y-85302620D01*
X170512887Y-85292050D01*
X170539926Y-85274313D01*
X170572313Y-85250939D01*
X170608054Y-85223456D01*
X170645155Y-85193395D01*
X170681624Y-85162283D01*
X170715466Y-85131649D01*
X170742248Y-85105530D01*
X170836757Y-84999191D01*
X170925190Y-84879973D01*
X170948384Y-84842851D01*
X171127971Y-84842851D01*
X171178314Y-84817587D01*
X171208234Y-84803562D01*
X171246316Y-84787103D01*
X171286332Y-84770861D01*
X171304956Y-84763709D01*
X171445540Y-84718699D01*
X171593306Y-84686129D01*
X171746088Y-84666381D01*
X171896214Y-84659838D01*
X172018711Y-84659607D01*
X172002915Y-84631545D01*
X171973005Y-84583083D01*
X171933952Y-84526960D01*
X171887877Y-84465809D01*
X171836903Y-84402260D01*
X171783153Y-84338946D01*
X171728750Y-84278498D01*
X171675815Y-84223547D01*
X171666080Y-84213927D01*
X171633913Y-84183102D01*
X171598375Y-84150188D01*
X171561346Y-84116804D01*
X171524708Y-84084570D01*
X171490341Y-84055105D01*
X171460128Y-84030028D01*
X171435950Y-84010958D01*
X171419687Y-83999514D01*
X171413930Y-83996906D01*
X171411569Y-84003902D01*
X171408687Y-84022433D01*
X171405833Y-84048812D01*
X171405287Y-84055021D01*
X171393708Y-84141469D01*
X171373189Y-84237259D01*
X171344521Y-84339976D01*
X171308493Y-84447210D01*
X171265898Y-84556545D01*
X171217525Y-84665569D01*
X171180715Y-84740283D01*
X171127971Y-84842851D01*
X170948384Y-84842851D01*
X171006850Y-84749278D01*
X171081040Y-84608507D01*
X171147065Y-84459061D01*
X171204226Y-84302343D01*
X171251827Y-84139752D01*
X171278196Y-84027425D01*
X171289619Y-83974829D01*
X171299202Y-83935188D01*
X171307868Y-83906452D01*
X171316537Y-83886568D01*
X171326130Y-83873484D01*
X171337569Y-83865149D01*
X171351775Y-83859511D01*
X171353863Y-83858872D01*
X171379373Y-83853770D01*
X171404334Y-83855842D01*
X171419439Y-83859577D01*
X171462528Y-83876365D01*
X171513354Y-83904353D01*
X171570511Y-83942524D01*
X171632590Y-83989863D01*
X171698184Y-84045353D01*
X171765886Y-84107979D01*
X171772807Y-84114682D01*
X171883826Y-84229690D01*
X171983193Y-84348094D01*
X172074112Y-84473963D01*
X172148433Y-84592039D01*
X172200428Y-84679783D01*
X172282971Y-84697425D01*
X172370505Y-84719366D01*
X172461725Y-84748079D01*
X172552699Y-84782004D01*
X172639498Y-84819583D01*
X172718190Y-84859255D01*
X172773613Y-84892064D01*
X172795121Y-84905591D01*
X172810740Y-84914768D01*
X172816960Y-84917574D01*
X172816064Y-84909988D01*
X172812671Y-84889800D01*
X172807208Y-84859387D01*
X172800101Y-84821125D01*
X172792061Y-84778861D01*
X172781971Y-84724289D01*
X172771633Y-84664754D01*
X172761990Y-84605928D01*
X172753987Y-84553483D01*
X172750838Y-84531000D01*
X172745151Y-84488789D01*
X172739803Y-84449427D01*
X172735302Y-84416629D01*
X172732154Y-84394108D01*
X172731540Y-84389846D01*
X172727082Y-84359327D01*
X172743303Y-84378402D01*
X172760123Y-84400253D01*
X172781749Y-84431232D01*
X172805486Y-84467179D01*
X172828640Y-84503931D01*
X172848518Y-84537326D01*
X172860882Y-84560071D01*
X172892714Y-84633110D01*
X172920915Y-84718632D01*
X172945680Y-84817360D01*
X172967205Y-84930015D01*
X172975748Y-84984508D01*
X172981533Y-85021778D01*
X172986731Y-85047640D01*
X172992674Y-85065823D01*
X173000691Y-85080060D01*
X173012111Y-85094079D01*
X173016543Y-85098956D01*
X173068765Y-85163751D01*
X173117166Y-85239120D01*
X173159186Y-85320429D01*
X173192265Y-85403044D01*
X173202340Y-85435145D01*
X173209145Y-85460765D01*
X173213939Y-85484837D01*
X173217046Y-85510891D01*
X173218793Y-85542458D01*
X173219502Y-85583069D01*
X173219549Y-85622078D01*
X173219223Y-85670534D01*
X173218267Y-85707331D01*
X173216286Y-85736068D01*
X173212885Y-85760346D01*
X173207668Y-85783763D01*
X173200242Y-85809919D01*
X173198198Y-85816641D01*
X173163309Y-85911114D01*
X173117617Y-86000445D01*
X173059691Y-86087062D01*
X172988100Y-86173392D01*
X172987497Y-86174055D01*
X172965405Y-86199124D01*
X172948092Y-86220193D01*
X172937601Y-86234686D01*
X172935454Y-86239735D01*
X172942380Y-86247552D01*
X172958801Y-86262746D01*
X172982248Y-86283224D01*
X173010252Y-86306892D01*
X173040344Y-86331656D01*
X173070055Y-86355422D01*
X173090865Y-86371532D01*
X173178849Y-86433765D01*
X173275764Y-86494188D01*
X173377054Y-86550284D01*
X173478166Y-86599537D01*
X173574543Y-86639431D01*
X173578050Y-86640728D01*
X173609453Y-86651647D01*
X173647257Y-86663809D01*
X173688334Y-86676321D01*
X173729557Y-86688291D01*
X173767797Y-86698825D01*
X173799929Y-86707030D01*
X173822822Y-86712014D01*
X173831563Y-86713108D01*
X173835990Y-86705850D01*
X173839791Y-86685383D01*
X173842905Y-86653749D01*
X173845275Y-86612987D01*
X173846841Y-86565140D01*
X173847544Y-86512247D01*
X173847324Y-86456349D01*
X173846123Y-86399488D01*
X173843880Y-86343704D01*
X173842835Y-86324756D01*
X173826954Y-86138713D01*
X173802075Y-85961949D01*
X173768377Y-85795317D01*
X173726035Y-85639669D01*
X173675226Y-85495855D01*
X173665841Y-85472839D01*
X173594024Y-85313735D01*
X173515853Y-85166749D01*
X173430091Y-85029622D01*
X173396354Y-84981165D01*
X173370157Y-84944328D01*
X173351120Y-84918578D01*
X173336917Y-84903050D01*
X173325219Y-84896881D01*
X173313702Y-84899206D01*
X173300036Y-84909160D01*
X173281895Y-84925879D01*
X173272068Y-84934997D01*
X173247671Y-84956857D01*
X173226336Y-84975074D01*
X173211347Y-84986879D01*
X173207517Y-84989380D01*
X173206404Y-84985926D01*
X173212295Y-84971697D01*
X173224130Y-84948871D01*
X173240849Y-84919628D01*
X173244060Y-84914242D01*
X173263106Y-84881100D01*
X173287430Y-84836646D01*
X173315774Y-84783358D01*
X173346880Y-84723714D01*
X173379492Y-84660191D01*
X173412351Y-84595268D01*
X173444201Y-84531422D01*
X173473784Y-84471131D01*
X173499842Y-84416874D01*
X173521119Y-84371127D01*
X173531463Y-84347882D01*
X173588609Y-84202795D01*
X173637195Y-84051961D01*
X173675714Y-83900476D01*
X173697708Y-83785725D01*
X173704695Y-83732092D01*
X173710433Y-83667072D01*
X173714819Y-83594432D01*
X173717749Y-83517941D01*
X173719118Y-83441367D01*
X173718821Y-83368477D01*
X173716755Y-83303040D01*
X173712815Y-83248823D01*
X173712628Y-83247048D01*
X173693153Y-83111840D01*
X173663456Y-82971421D01*
X173624743Y-82830688D01*
X173578222Y-82694538D01*
X173572948Y-82680745D01*
X173558928Y-82644702D01*
X173546846Y-82614088D01*
X173537763Y-82591558D01*
X173532741Y-82579767D01*
X173532164Y-82578694D01*
X173523777Y-82578594D01*
X173503254Y-82581200D01*
X173473375Y-82585996D01*
X173436918Y-82592463D01*
X173396664Y-82600086D01*
X173355391Y-82608347D01*
X173315880Y-82616730D01*
X173280910Y-82624717D01*
X173269064Y-82627623D01*
X173160947Y-82658796D01*
X173053777Y-82698055D01*
X172942769Y-82747187D01*
X172922499Y-82756979D01*
X172851266Y-82793191D01*
X172784962Y-82830128D01*
X172721826Y-82869145D01*
X172660098Y-82911597D01*
X172598016Y-82958839D01*
X172533820Y-83012226D01*
X172465748Y-83073113D01*
X172392040Y-83142856D01*
X172310934Y-83222809D01*
X172290608Y-83243228D01*
X172239501Y-83294668D01*
X172198120Y-83336106D01*
X172165481Y-83368410D01*
X172140599Y-83392447D01*
X172122491Y-83409087D01*
X172110172Y-83419196D01*
X172102657Y-83423643D01*
X172098964Y-83423296D01*
X172098107Y-83419023D01*
X172099007Y-83412212D01*
X172105760Y-83384591D01*
X172117043Y-83347899D01*
X172131141Y-83306989D01*
X172146339Y-83266713D01*
X172160921Y-83231925D01*
X172168002Y-83217000D01*
X172178219Y-83196252D01*
X172184826Y-83181767D01*
X172186212Y-83177804D01*
X172180502Y-83171427D01*
X172164819Y-83157546D01*
X172141333Y-83137898D01*
X172112214Y-83114221D01*
X172079634Y-83088253D01*
X172045761Y-83061729D01*
X172012768Y-83036389D01*
X171982823Y-83013968D01*
X171968759Y-83003740D01*
X171847565Y-82922657D01*
X171721245Y-82849156D01*
X171592243Y-82784360D01*
X171463004Y-82729390D01*
X171335973Y-82685368D01*
X171213595Y-82653414D01*
X171198137Y-82650202D01*
X171101343Y-82633840D01*
X171016014Y-82626137D01*
X170941096Y-82627021D01*
X170908200Y-82630520D01*
X170854140Y-82642292D01*
X170800692Y-82661299D01*
X170753245Y-82685358D01*
X170726247Y-82704233D01*
X170701311Y-82727617D01*
X170670934Y-82760573D01*
X170637905Y-82799823D01*
X170605011Y-82842085D01*
X170582109Y-82873784D01*
X170559603Y-82904944D01*
X170541986Y-82925305D01*
X170526217Y-82937105D01*
X170509255Y-82942582D01*
X170488059Y-82943974D01*
X170486738Y-82943977D01*
X170466054Y-82940820D01*
X170446234Y-82930164D01*
X170425208Y-82910227D01*
X170400902Y-82879230D01*
X170385502Y-82856994D01*
X170354998Y-82815179D01*
X170320377Y-82773462D01*
X170284840Y-82735332D01*
X170251584Y-82704276D01*
X170230610Y-82688094D01*
X170171782Y-82656787D01*
X170103610Y-82636268D01*
X170025796Y-82626522D01*
X169938046Y-82627537D01*
X169840063Y-82639300D01*
X169731551Y-82661796D01*
X169717933Y-82665185D01*
X169563494Y-82711877D01*
X169409325Y-82773700D01*
X169255661Y-82850526D01*
X169102735Y-82942224D01*
X168950782Y-83048667D01*
X168800035Y-83169725D01*
X168796251Y-83172966D01*
X168796519Y-83181762D01*
X168802727Y-83200348D01*
X168813601Y-83225070D01*
X168816433Y-83230850D01*
X168830157Y-83260965D01*
X168844507Y-83296758D01*
X168858190Y-83334451D01*
X168869916Y-83370269D01*
X168878392Y-83400435D01*
X168882328Y-83421171D01*
X168882457Y-83423939D01*
X168877263Y-83422304D01*
X168862076Y-83410235D01*
X168837493Y-83388287D01*
X168804108Y-83357014D01*
X168762517Y-83316971D01*
X168713314Y-83268715D01*
X168670727Y-83226420D01*
X168598119Y-83154648D01*
X168533998Y-83092871D01*
X168476698Y-83039688D01*
X168424556Y-82993701D01*
X168375905Y-82953511D01*
X168329083Y-82917716D01*
X168282424Y-82884918D01*
X168234264Y-82853718D01*
X168209106Y-82838283D01*
X168129882Y-82793813D01*
X168041424Y-82749913D01*
X167949609Y-82709270D01*
X167860316Y-82674575D01*
X167823758Y-82662022D01*
X167773045Y-82646501D01*
X167716726Y-82631093D01*
X167658247Y-82616578D01*
X167601054Y-82603736D01*
X167548592Y-82593349D01*
X167504308Y-82586195D01*
X167475867Y-82583251D01*
X167446478Y-82581556D01*
X167410376Y-82673115D01*
X167349125Y-82849252D01*
X167302136Y-83030806D01*
X167274733Y-83180504D01*
X167267942Y-83239744D01*
X167263305Y-83310379D01*
X167260796Y-83388701D01*
X167260390Y-83471001D01*
X167262062Y-83553571D01*
X167265788Y-83632703D01*
X167271541Y-83704689D01*
X167278649Y-83761704D01*
X167305052Y-83901909D01*
X167340705Y-84044239D01*
X167384127Y-84183568D01*
X167433840Y-84314771D01*
X167447844Y-84347448D01*
X167469740Y-84395600D01*
X167496840Y-84452650D01*
X167527952Y-84516289D01*
X167561885Y-84584211D01*
X167597445Y-84654107D01*
X167633441Y-84723671D01*
X167668679Y-84790595D01*
X167701969Y-84852571D01*
X167732117Y-84907293D01*
X167757931Y-84952453D01*
X167775303Y-84981165D01*
X167779898Y-84989913D01*
X167776728Y-84990383D01*
X167764367Y-84981984D01*
X167749298Y-84970365D01*
X167723051Y-84948974D01*
X167696632Y-84926234D01*
X167682883Y-84913726D01*
X167654502Y-84886961D01*
X167637104Y-84908576D01*
X167565866Y-85004499D01*
X167496252Y-85112454D01*
X167429908Y-85229213D01*
X167368479Y-85351546D01*
X167313609Y-85476227D01*
X167266946Y-85600028D01*
X167237903Y-85691811D01*
X167212008Y-85787717D01*
X167190616Y-85880855D01*
X167173366Y-85973999D01*
X167159895Y-86069922D01*
X167149840Y-86171397D01*
X167142838Y-86281195D01*
X167138527Y-86402090D01*
X167137377Y-86460284D01*
X167133411Y-86714801D01*
X167023691Y-86714801D01*
X167023670Y-86714733D01*
X167012557Y-86659083D01*
X167003422Y-86590330D01*
X166996402Y-86512825D01*
X166992063Y-86404559D01*
X166994225Y-86286219D01*
X167002573Y-86161382D01*
X167016790Y-86033625D01*
X167036562Y-85906527D01*
X167060139Y-85789937D01*
X167097313Y-85647525D01*
X167143354Y-85506816D01*
X167197257Y-85369920D01*
X167258019Y-85238948D01*
X167324635Y-85116010D01*
X167396099Y-85003217D01*
X167471409Y-84902680D01*
X167496503Y-84873043D01*
X167520162Y-84846333D01*
X167540616Y-84823881D01*
X167555534Y-84808206D01*
X167562295Y-84801977D01*
X167561450Y-84794252D01*
X167551583Y-84777752D01*
X167534156Y-84754789D01*
X167526885Y-84746056D01*
X167453551Y-84650006D01*
X167385374Y-84541160D01*
X167323059Y-84421318D01*
X167267311Y-84292280D01*
X167218837Y-84155847D01*
X167178343Y-84013818D01*
X167146533Y-83867993D01*
X167124115Y-83720174D01*
X167123856Y-83717973D01*
X167118511Y-83658534D01*
X167114849Y-83588687D01*
X167112871Y-83512446D01*
X167112576Y-83433827D01*
X167113962Y-83356844D01*
X167117029Y-83285510D01*
X167121776Y-83223841D01*
X167123962Y-83204242D01*
X167138023Y-83109969D01*
X167156499Y-83016500D01*
X167178804Y-82925340D01*
X167204352Y-82837991D01*
X167232558Y-82755957D01*
X167262837Y-82680741D01*
X167294602Y-82613847D01*
X167327269Y-82556776D01*
X167360251Y-82511034D01*
X167392964Y-82478123D01*
X167411719Y-82465432D01*
X167442554Y-82455311D01*
X167486183Y-82451137D01*
X167541391Y-82452805D01*
X167606962Y-82460212D01*
X167681682Y-82473252D01*
X167764335Y-82491822D01*
X167787564Y-82497695D01*
X167928441Y-82541188D01*
X168069395Y-82598316D01*
X168207983Y-82667661D01*
X168341764Y-82747809D01*
X168468298Y-82837341D01*
X168585143Y-82934842D01*
X168652616Y-82999654D01*
X168708897Y-83056911D01*
X168774695Y-83000225D01*
X168890944Y-82907248D01*
X169016117Y-82820374D01*
X169147944Y-82740715D01*
X169284156Y-82669384D01*
X169422484Y-82607496D01*
X169560659Y-82556161D01*
X169696412Y-82516495D01*
X169809492Y-82492563D01*
X169853810Y-82485706D01*
X169893660Y-82481476D01*
X169934503Y-82479551D01*
X169981800Y-82479611D01*
X170015500Y-82480465D01*
X170088151Y-82484774D01*
X170149247Y-82493324D01*
X170202114Y-82506990D01*
X170250081Y-82526645D01*
X170296475Y-82553166D01*
X170299394Y-82555068D01*
X170345023Y-82590252D01*
X170390125Y-82634300D01*
X170430215Y-82682353D01*
X170460810Y-82729551D01*
X170461449Y-82730741D01*
X170474007Y-82753418D01*
X170483648Y-82769181D01*
X170488391Y-82774803D01*
X170488476Y-82774749D01*
X170493372Y-82767793D01*
X170504907Y-82750811D01*
X170521271Y-82726481D01*
X170537556Y-82702126D01*
X170579744Y-82644833D01*
X170622950Y-82599323D01*
X170670757Y-82562335D01*
X170725082Y-82531432D01*
X170769169Y-82511469D01*
X170811561Y-82496908D01*
X170855701Y-82487161D01*
X170905031Y-82481639D01*
X170962993Y-82479754D01*
X171022649Y-82480603D01*
X171102867Y-82485019D01*
X171178526Y-82494019D01*
X171254108Y-82508446D01*
X171334093Y-82529145D01*
X171416439Y-82554789D01*
X171568804Y-82611967D01*
X171721205Y-82682058D01*
X171870461Y-82763249D01*
X172013391Y-82853731D01*
X172146812Y-82951693D01*
X172219014Y-83011595D01*
X172270891Y-83056725D01*
X172341093Y-82986353D01*
X172443742Y-82891190D01*
X172553550Y-82804785D01*
X172672882Y-82725467D01*
X172804104Y-82651565D01*
X172842385Y-82632071D01*
X172987435Y-82566275D01*
X173129639Y-82515075D01*
X173269748Y-82478240D01*
X173408512Y-82455536D01*
X173411413Y-82455210D01*
X173448778Y-82452052D01*
X173485377Y-82450666D01*
X173515297Y-82451216D01*
G37*
D12*
%TO.C,bn0085*%
X133891600Y-85254600D02*
X135221600Y-85254600D01*
X133891600Y-86584600D02*
X133891600Y-85254600D01*
X133891600Y-87854600D02*
X133891600Y-110774600D01*
X133891600Y-87854600D02*
X136551600Y-87854600D01*
X133891600Y-110774600D02*
X136551600Y-110774600D01*
X136551600Y-87854600D02*
X136551600Y-110774600D01*
%TO.C,D1*%
X151891300Y-94199200D02*
X151891300Y-99639200D01*
X151891300Y-98619200D02*
X154831300Y-98619200D01*
X151891300Y-98739200D02*
X154831300Y-98739200D01*
X151891300Y-98859200D02*
X154831300Y-98859200D01*
X151891300Y-99639200D02*
X154831300Y-99639200D01*
X153361300Y-93179200D02*
X153361300Y-94199200D01*
X153361300Y-100659200D02*
X153361300Y-99639200D01*
X154831300Y-94199200D02*
X151891300Y-94199200D01*
X154831300Y-99639200D02*
X154831300Y-94199200D01*
%TO.C,R1*%
X153361300Y-87439400D02*
X153361300Y-86819400D01*
X154281300Y-88359400D02*
G75*
G02*
X152441300Y-88359400I-920000J0D01*
G01*
X152441300Y-88359400D02*
G75*
G02*
X154281300Y-88359400I920000J0D01*
G01*
%TO.C,D2*%
X151891300Y-107705500D02*
X151891300Y-113145500D01*
X151891300Y-112125500D02*
X154831300Y-112125500D01*
X151891300Y-112245500D02*
X154831300Y-112245500D01*
X151891300Y-112365500D02*
X154831300Y-112365500D01*
X151891300Y-113145500D02*
X154831300Y-113145500D01*
X153361300Y-106685500D02*
X153361300Y-107705500D01*
X153361300Y-114165500D02*
X153361300Y-113145500D01*
X154831300Y-107705500D02*
X151891300Y-107705500D01*
X154831300Y-113145500D02*
X154831300Y-107705500D01*
%TO.C,BT1*%
X156043600Y-82312500D02*
X156043600Y-89932500D01*
X156043600Y-89932500D02*
X166203600Y-89932500D01*
X166203600Y-82312500D02*
X156043600Y-82312500D01*
X166203600Y-88662500D02*
X156043600Y-88662500D01*
X166203600Y-89932500D02*
X166203600Y-82312500D01*
%TO.C,D1Mini*%
X105917100Y-110240200D02*
X105917100Y-84810200D01*
X105917100Y-110240200D02*
X108457100Y-110240200D01*
X108457100Y-110240200D02*
X108457100Y-117140200D01*
X108457100Y-117140200D02*
X131777100Y-117140200D01*
X129657100Y-82680200D02*
X108047100Y-82680200D01*
X131777100Y-117140200D02*
X131777100Y-84810200D01*
X105917100Y-84810200D02*
G75*
G02*
X108047100Y-82680200I2130002J-2D01*
G01*
X129647100Y-82680200D02*
G75*
G02*
X131777100Y-84810200I0J-2130000D01*
G01*
D10*
X105512100Y-91020200D02*
X104877100Y-91655200D01*
X104877100Y-90385200D01*
X105512100Y-91020200D01*
G36*
X105512100Y-91020200D02*
G01*
X104877100Y-91655200D01*
X104877100Y-90385200D01*
X105512100Y-91020200D01*
G37*
%TO.C,SW1*%
X137774100Y-112640400D02*
X146374100Y-112640400D01*
X137774100Y-117240400D02*
X139974100Y-117240400D01*
X144074100Y-117240400D02*
X146374100Y-117240400D01*
%TD*%
M02*
