%TF.GenerationSoftware,KiCad,Pcbnew,8.0.0*%
%TF.CreationDate,2024-03-12T15:13:44-04:00*%
%TF.ProjectId,slimevrpcb,736c696d-6576-4727-9063-622e6b696361,rev?*%
%TF.SameCoordinates,Original*%
%TF.FileFunction,Soldermask,Top*%
%TF.FilePolarity,Negative*%
%FSLAX46Y46*%
G04 Gerber Fmt 4.6, Leading zero omitted, Abs format (unit mm)*
G04 Created by KiCad (PCBNEW 8.0.0) date 2024-03-12 15:13:44*
%MOMM*%
%LPD*%
G01*
G04 APERTURE LIST*
%ADD10R,1.700000X1.700000*%
%ADD11O,1.700000X1.700000*%
%ADD12R,2.200000X2.200000*%
%ADD13O,2.200000X2.200000*%
%ADD14C,1.400000*%
%ADD15O,1.400000X1.400000*%
%ADD16R,3.000000X3.000000*%
%ADD17C,3.000000*%
%ADD18R,2.000000X2.000000*%
%ADD19O,2.000000X1.600000*%
%ADD20O,2.200000X3.500000*%
%ADD21R,1.500000X2.500000*%
%ADD22O,1.500000X2.500000*%
G04 APERTURE END LIST*
D10*
%TO.C,bn0085*%
X135221600Y-86584600D03*
D11*
X135221600Y-89124600D03*
X135221600Y-91664600D03*
X135221600Y-94204600D03*
X135221600Y-96744600D03*
X135221600Y-99284600D03*
X135221600Y-101824600D03*
X135221600Y-104364600D03*
X135221600Y-106904600D03*
X135221600Y-109444600D03*
%TD*%
D12*
%TO.C,D1*%
X153361300Y-101999200D03*
D13*
X153361300Y-91839200D03*
%TD*%
D14*
%TO.C,R1*%
X153361300Y-88359400D03*
D15*
X153361300Y-85819400D03*
%TD*%
D12*
%TO.C,D2*%
X153361300Y-115505500D03*
D13*
X153361300Y-105345500D03*
%TD*%
D16*
%TO.C,BT1*%
X158583600Y-86122500D03*
D17*
X163663600Y-86122500D03*
%TD*%
D18*
%TO.C,D1Mini*%
X107417100Y-91020200D03*
D19*
X107417100Y-93560200D03*
X107417100Y-96100200D03*
X107417100Y-98640200D03*
X107417100Y-101180200D03*
X107417100Y-103720200D03*
X107417100Y-106260200D03*
X107417100Y-108800200D03*
X130277100Y-108800200D03*
X130277100Y-106260200D03*
X130277100Y-103720200D03*
X130277100Y-101180200D03*
X130277100Y-98640200D03*
X130277100Y-96100200D03*
X130277100Y-93560200D03*
X130277100Y-91020200D03*
%TD*%
D20*
%TO.C,SW1*%
X137974100Y-114940400D03*
X146174100Y-114940400D03*
D21*
X140074100Y-114940400D03*
D22*
X142074100Y-114940400D03*
X144074100Y-114940400D03*
%TD*%
D18*
%TO.C,tp4056*%
X158223618Y-94172341D03*
X160763618Y-94172341D03*
X169647538Y-94156019D03*
X172187538Y-94156019D03*
X158223618Y-115968276D03*
X172238501Y-116019239D03*
%TD*%
M02*
