M48
; DRILL file {KiCad 8.0.0} date 2024-03-12T15:12:38-0400
; FORMAT={-:-/ absolute / inch / decimal}
; #@! TF.CreationDate,2024-03-12T15:12:38-04:00
; #@! TF.GenerationSoftware,Kicad,Pcbnew,8.0.0
; #@! TF.FileFunction,Plated,1,2,PTH
FMAT,2
INCH
; #@! TA.AperFunction,Plated,PTH,ViaDrill
T1C0.0157
; #@! TA.AperFunction,Plated,PTH,ComponentDrill
T2C0.0276
; #@! TA.AperFunction,Plated,PTH,ComponentDrill
T3C0.0354
; #@! TA.AperFunction,Plated,PTH,ComponentDrill
T4C0.0394
; #@! TA.AperFunction,Plated,PTH,ComponentDrill
T5C0.0433
; #@! TA.AperFunction,Plated,PTH,ComponentDrill
T6C0.0591
; #@! TA.AperFunction,Plated,PTH,ComponentDrill
T7C0.0598
%
G90
G05
T1
X4.3307Y-3.7402
X4.3307Y-4.3307
X4.3307Y-4.5276
X4.5276Y-3.7402
X4.5276Y-4.1339
X4.5276Y-4.3307
X4.5276Y-4.5276
X4.7244Y-4.1339
X4.7244Y-4.3307
X4.7244Y-4.5276
X4.9213Y-3.7402
X4.9213Y-4.1339
X4.9213Y-4.3307
X4.9213Y-4.5276
X5.1181Y-4.5276
X5.5118Y-3.3465
X5.5118Y-3.5433
X5.5118Y-3.7402
X5.5118Y-3.937
X5.5118Y-4.1339
X5.5118Y-4.3307
X5.7087Y-3.3465
X5.7087Y-3.5433
X5.7087Y-3.7402
X5.7087Y-3.937
X5.7087Y-4.1339
X5.7087Y-4.3307
X6.2992Y-3.937
X6.2992Y-4.1339
X6.2992Y-4.3307
X6.4961Y-3.7402
X6.4961Y-3.937
X6.4961Y-4.3307
X6.4961Y-4.5276
X6.6929Y-4.1339
X6.6929Y-4.3307
X6.6929Y-4.5276
T2
X6.0378Y-3.3787
X6.0378Y-3.4787
T3
X5.5147Y-4.5252
X5.5935Y-4.5252
X5.6722Y-4.5252
T4
X4.229Y-3.5835
X4.229Y-3.6835
X4.229Y-3.7835
X4.229Y-3.8835
X4.229Y-3.9835
X4.229Y-4.0835
X4.229Y-4.1835
X4.229Y-4.2835
X5.129Y-3.5835
X5.129Y-3.6835
X5.129Y-3.7835
X5.129Y-3.8835
X5.129Y-3.9835
X5.129Y-4.0835
X5.129Y-4.1835
X5.129Y-4.2835
X5.3237Y-3.4088
X5.3237Y-3.5088
X5.3237Y-3.6088
X5.3237Y-3.7088
X5.3237Y-3.8088
X5.3237Y-3.9088
X5.3237Y-4.0088
X5.3237Y-4.1088
X5.3237Y-4.2088
X5.3237Y-4.3088
X6.2293Y-3.7076
X6.2293Y-4.5657
X6.3293Y-3.7076
X6.679Y-3.7069
X6.779Y-3.7069
X6.781Y-4.5677
T5
X6.0378Y-3.6157
X6.0378Y-4.0157
X6.0378Y-4.1475
X6.0378Y-4.5475
T6
X5.4321Y-4.5252
X5.7549Y-4.5252
T7
X6.2434Y-3.3906
X6.4434Y-3.3906
M30
